<?xml version='1.0' encoding='UTF-8' standalone='no'?>
<!-- Created with Fritzing (http://www.fritzing.org/) -->
<svg xmlns="http://www.w3.org/2000/svg" version="1.2" viewBox="0 0 168.881 129.546" width="2.34557in" height="1.79926in" baseProfile="tiny" xmlns:svg="http://www.w3.org/2000/svg" y="0in" x="0in" >
 <g partID="855486280">
  <g id="board" >
   <rect fill="none" fill-opacity="0.5" width="168.305" height="128.97" id="boardoutline" stroke="black" y="0.288" stroke-width="0.5" x="0.288" />
  </g>
 </g>
 <g partID="855484662">
  <g transform="translate(23.1368,101.874)">
   <g transform="matrix(0,-1,1,0,0,0)">
    <g gorn="0.3" id="copper1" >
     <g gorn="0.3.0" id="copper0" >
      <g fill="none" gorn="0.3.0.0" cy="43.2" connectorname="AIN3" cx="72" id="0" stroke="black" stroke-width="1.10268" r="1.96866" />
      <g fill="none" gorn="0.3.0.1" cy="43.2" connectorname="AIN2" cx="64.8" id="1" stroke="black" stroke-width="1.10268" r="1.96866" />
      <g fill="none" gorn="0.3.0.2" cy="43.2" connectorname="AIN1" cx="57.6" id="2" stroke="black" stroke-width="1.10268" r="1.96866" />
      <g fill="none" gorn="0.3.0.3" cy="43.2" connectorname="AIN0" cx="50.4" id="3" stroke="black" stroke-width="1.10268" r="1.96866" />
      <g fill="none" gorn="0.3.0.4" cy="43.2" connectorname="ALERT" cx="43.2" id="4" stroke="black" stroke-width="1.10268" r="1.96866" />
      <g fill="none" gorn="0.3.0.5" cy="43.2" connectorname="ADDR" cx="36" id="5" stroke="black" stroke-width="1.10268" r="1.96866" />
      <g fill="none" gorn="0.3.0.6" cy="43.2" connectorname="SDA" cx="28.8" id="6" stroke="black" stroke-width="1.10268" r="1.96866" />
      <g fill="none" gorn="0.3.0.7" cy="43.2" connectorname="SCL" cx="21.6" id="7" stroke="black" stroke-width="1.10268" r="1.96866" />
      <g fill="none" gorn="0.3.0.8" cy="43.2" connectorname="GND" cx="14.4" id="8" stroke="black" stroke-width="1.10268" r="1.96866" />
      <g fill="none" gorn="0.3.0.9" cy="43.2" connectorname="VDD" cx="7.2" id="9" stroke="black" stroke-width="1.10268" r="1.96866" />
     </g>
    </g>
   </g>
  </g>
 </g>
 <g partID="855497572">
  <g transform="translate(169.721,129.193)">
   <g transform="matrix(-1,0,0,-1,0,0)">
    <g id="copper1" >
     <g fill="none" cy="12.919" cx="24.185" id="10" stroke="black" stroke-width="1.25" r="2.088" />
     <g fill="none" cy="12.919" cx="31.384" id="11" stroke="black" stroke-width="1.25" r="2.088" />
     <g fill="none" cy="12.919" cx="38.585" id="12" stroke="black" stroke-width="1.25" r="2.088" />
     <g fill="none" cy="12.919" cx="45.784" id="13" stroke="black" stroke-width="1.25" r="2.088" />
     <g fill="none" cy="12.919" cx="52.985" id="14" stroke="black" stroke-width="1.25" r="2.088" />
     <g fill="none" cy="12.919" cx="60.185" id="15" stroke="black" stroke-width="1.25" r="2.088" />
     <g fill="none" cy="12.919" cx="67.384" id="16" stroke="black" stroke-width="1.25" r="2.088" />
     <g fill="none" cy="12.919" cx="74.585" id="17" stroke="black" stroke-width="1.25" r="2.088" />
     <g fill="none" cy="12.919" cx="81.784" id="18" stroke="black" stroke-width="1.25" r="2.088" />
     <g fill="none" cy="12.919" cx="88.985" id="19" stroke="black" stroke-width="1.25" r="2.088" />
     <g fill="none" cy="12.919" cx="96.185" id="20" stroke="black" stroke-width="1.25" r="2.088" />
     <g fill="none" cy="12.919" cx="103.385" id="21" stroke="black" stroke-width="1.25" r="2.088" />
     <g fill="none" cy="12.919" cx="110.585" id="22" stroke="black" stroke-width="1.25" r="2.088" />
     <g fill="none" cy="12.919" cx="117.784" id="23" stroke="black" stroke-width="1.25" r="2.088" />
     <g fill="none" cy="12.919" cx="124.986" id="24" stroke="black" stroke-width="1.25" r="2.088" />
     <g fill="none" cy="12.919" cx="132.185" id="25" stroke="black" stroke-width="1.25" r="2.088" />
     <g fill="none" cy="12.919" cx="139.385" id="26" stroke="black" stroke-width="1.25" r="2.088" />
     <g fill="none" cy="12.919" cx="146.585" id="27" stroke="black" stroke-width="1.25" r="2.088" />
     <g fill="none" cy="12.919" cx="153.784" id="28" stroke="black" stroke-width="1.25" r="2.088" />
     <g fill="none" cy="12.919" cx="160.986" id="29" stroke="black" stroke-width="1.25" r="2.088" />
     <g fill="none" cy="5.72" cx="160.986" id="30" stroke="black" stroke-width="1.25" r="2.088" />
     <g fill="none" cy="5.72" cx="153.784" id="31" stroke="black" stroke-width="1.25" r="2.088" />
     <g fill="none" cy="5.72" cx="146.585" id="32" stroke="black" stroke-width="1.25" r="2.088" />
     <g fill="none" cy="5.72" cx="139.385" id="33" stroke="black" stroke-width="1.25" r="2.088" />
     <g fill="none" cy="5.72" cx="132.185" id="34" stroke="black" stroke-width="1.25" r="2.088" />
     <g fill="none" cy="5.72" cx="124.986" id="35" stroke="black" stroke-width="1.25" r="2.088" />
     <g fill="none" cy="5.72" cx="117.784" id="36" stroke="black" stroke-width="1.25" r="2.088" />
     <g fill="none" cy="5.72" cx="110.585" id="37" stroke="black" stroke-width="1.25" r="2.088" />
     <g fill="none" cy="5.72" cx="103.385" id="38" stroke="black" stroke-width="1.25" r="2.088" />
     <g fill="none" cy="5.72" cx="96.185" id="39" stroke="black" stroke-width="1.25" r="2.088" />
     <g fill="none" cy="5.72" cx="88.985" id="40" stroke="black" stroke-width="1.25" r="2.088" />
     <g fill="none" cy="5.72" cx="81.784" id="41" stroke="black" stroke-width="1.25" r="2.088" />
     <g fill="none" cy="5.72" cx="74.585" id="42" stroke="black" stroke-width="1.25" r="2.088" />
     <g fill="none" cy="5.72" cx="67.384" id="43" stroke="black" stroke-width="1.25" r="2.088" />
     <g fill="none" cy="5.72" cx="60.185" id="44" stroke="black" stroke-width="1.25" r="2.088" />
     <g fill="none" cy="5.72" cx="52.985" id="45" stroke="black" stroke-width="1.25" r="2.088" />
     <g fill="none" cy="5.72" cx="45.784" id="46" stroke="black" stroke-width="1.25" r="2.088" />
     <g fill="none" cy="5.72" cx="38.585" id="47" stroke="black" stroke-width="1.25" r="2.088" />
     <g fill="none" cy="5.72" cx="31.384" id="48" stroke="black" stroke-width="1.25" r="2.088" />
     <g fill="none" cy="5.72" cx="24.185" id="49" stroke="black" stroke-width="1.25" r="2.088" />
    </g>
   </g>
  </g>
 </g>
 <g partID="855499890">
  <g transform="translate(158.618,13.2378)">
   <g transform="matrix(0,1,-1,0,0,0)">
    <g transform="matrix(1, 0, 0, 1, -3.60336, 24.3281)">
     <g id="copper1">
      <g gorn="0.4.0.0.0.0">
       <rect fill="black" gorn="0.4.0.0.0.0.0" width="4.30866" fill-opacity="1" height="7.2" id="50" stroke="none" y="-24.2023" x="3.68504" stroke-width="0"/>
       <rect fill="black" gorn="0.4.0.0.0.0.1" width="4.30866" fill-opacity="1" height="7.2" id="51" stroke="none" y="-24.2023" x="10.885" stroke-width="0"/>
       <rect fill="black" gorn="0.4.0.0.0.0.2" width="4.30866" fill-opacity="1" height="7.2" id="52" stroke="none" y="-24.2023" x="18.085" stroke-width="0"/>
       <rect fill="black" gorn="0.4.0.0.0.0.3" width="4.30866" fill-opacity="1" height="7.2" id="53" stroke="none" y="-24.2023" x="25.285" stroke-width="0"/>
       <rect fill="black" gorn="0.4.0.0.0.0.4" width="4.30866" fill-opacity="1" height="7.2" id="54" stroke="none" y="21.153" x="3.68504" stroke-width="0"/>
       <rect fill="black" gorn="0.4.0.0.0.0.5" width="4.30866" fill-opacity="1" height="7.2" id="55" stroke="none" y="21.153" x="10.885" stroke-width="0"/>
       <rect fill="black" gorn="0.4.0.0.0.0.6" width="4.30866" fill-opacity="1" height="7.2" id="56" stroke="none" y="21.153" x="18.085" stroke-width="0"/>
       <rect fill="black" gorn="0.4.0.0.0.0.7" width="4.30866" fill-opacity="1" height="7.2" id="57" stroke="none" y="21.153" x="25.285" stroke-width="0"/>
      </g>
     </g>
    </g>
   </g>
  </g>
 </g>
</svg>
