<?xml version='1.0' encoding='UTF-8' standalone='no'?>
<!-- Created with Fritzing (http://www.fritzing.org/) -->
<svg xmlns="http://www.w3.org/2000/svg" version="1.2" viewBox="0 0 168.881 129.546" width="2.34557in" height="1.79926in" baseProfile="tiny" xmlns:svg="http://www.w3.org/2000/svg" y="0in" x="0in" >
 <g transform="matrix(-1, 0, 0, 1, 168.881, 0)">
  <g partID="855486280">
   <g id="board" >
    <rect fill="none" fill-opacity="0.5" width="168.305" height="128.97" id="boardoutline" stroke="black" y="0.288" stroke-width="0.5" x="0.288" />
   </g>
  </g>
  <g partID="855636360">
   <g transform="translate(2.88,2.88)">
    <g id="groundplane" >
     <polygon fill="black" points="0,0,0,23.76,64.08,23.76,64.08,23.904,64.656,23.904,64.656,24.048,64.944,24.048,64.944,24.192,65.232,24.192,65.232,24.336,65.376,24.336,65.376,24.48,65.52,24.48,65.52,24.624,65.664,24.624,65.664,24.768,65.808,24.768,65.808,24.912,65.952,24.912,65.952,25.056,66.096,25.056,66.096,25.2,66.24,25.2,66.24,25.488,66.384,25.488,66.384,25.776,66.528,25.776,66.528,26.208,66.672,26.208,66.672,27.792,66.528,27.792,66.528,28.224,66.384,28.224,66.384,28.512,66.24,28.512,66.24,28.8,66.096,28.8,66.096,28.944,65.952,28.944,65.952,29.088,65.808,29.088,65.808,29.232,65.664,29.232,65.664,29.376,65.52,29.376,65.52,29.52,65.376,29.52,65.376,29.664,65.088,29.664,65.088,29.808,64.944,29.808,64.944,31.392,65.232,31.392,65.232,31.536,65.376,31.536,65.376,31.68,65.52,31.68,65.52,31.824,65.664,31.824,65.664,31.968,65.808,31.968,65.808,32.112,65.952,32.112,65.952,32.256,66.096,32.256,66.096,32.4,66.24,32.4,66.24,32.688,66.384,32.688,66.384,32.832,123.84,32.832,123.84,83.808,101.088,83.808,101.088,91.152,101.232,91.152,101.232,91.296,101.376,91.296,101.376,91.44,101.52,91.44,101.52,91.584,101.664,91.584,101.664,91.728,101.808,91.728,101.808,91.872,101.952,91.872,101.952,92.016,102.096,92.016,102.096,92.16,102.24,92.16,102.24,92.304,102.384,92.304,102.384,92.448,102.528,92.448,102.528,92.592,102.672,92.592,102.672,92.736,102.816,92.736,102.816,92.88,102.96,92.88,102.96,93.024,103.104,93.024,103.104,93.168,103.248,93.168,103.248,93.312,103.392,93.312,103.392,93.456,103.536,93.456,103.536,93.6,103.68,93.6,103.68,93.744,103.824,93.744,103.824,93.888,103.968,93.888,103.968,94.032,104.112,94.032,104.112,94.176,104.256,94.176,104.256,94.32,104.4,94.32,104.4,94.464,104.544,94.464,104.544,94.608,104.688,94.608,104.688,94.752,104.832,94.752,104.832,94.896,104.976,94.896,104.976,95.04,105.12,95.04,105.12,95.184,105.264,95.184,105.264,95.328,105.408,95.328,105.408,95.472,105.552,95.472,105.552,95.616,105.696,95.616,105.696,95.76,105.84,95.76,105.84,95.904,105.984,95.904,105.984,96.048,106.128,96.048,106.128,96.192,106.272,96.192,106.272,96.336,106.416,96.336,106.416,96.48,106.56,96.48,106.56,96.624,106.704,96.624,106.704,96.768,106.848,96.768,106.848,96.912,106.992,96.912,106.992,97.056,107.136,97.056,107.136,97.2,107.28,97.2,107.28,97.344,121.104,97.344,121.104,97.488,121.68,97.488,121.68,97.632,121.968,97.632,121.968,97.776,122.112,97.776,122.112,97.92,122.256,97.92,122.256,98.064,122.4,98.064,122.4,98.208,122.544,98.208,122.544,98.352,122.688,98.352,122.688,98.496,122.832,98.496,122.832,98.64,122.976,98.64,122.976,98.784,123.12,98.784,123.12,98.928,123.264,98.928,123.264,99.072,123.408,99.072,123.408,99.216,123.552,99.216,123.552,99.36,123.696,99.36,123.696,99.504,123.84,99.504,123.84,99.648,123.984,99.648,123.984,99.792,124.128,99.792,124.128,99.936,124.272,99.936,124.272,100.08,124.416,100.08,124.416,100.224,124.56,100.224,124.56,100.368,124.704,100.368,124.704,100.512,124.848,100.512,124.848,100.656,124.992,100.656,124.992,100.8,125.136,100.8,125.136,100.944,125.28,100.944,125.28,101.088,125.424,101.088,125.424,101.232,125.568,101.232,125.568,101.376,125.712,101.376,125.712,101.52,125.856,101.52,125.856,101.664,126,101.664,126,101.808,126.144,101.808,126.144,101.952,126.288,101.952,126.288,102.096,126.432,102.096,126.432,102.24,126.576,102.24,126.576,102.384,126.72,102.384,126.72,102.528,126.864,102.528,126.864,102.672,127.008,102.672,127.008,102.816,127.152,102.816,127.152,102.96,127.296,102.96,127.296,103.104,127.44,103.104,127.44,103.248,127.584,103.248,127.584,103.392,127.728,103.392,127.728,103.536,127.872,103.536,127.872,103.68,128.016,103.68,128.016,103.824,128.16,103.824,128.16,103.968,128.304,103.968,128.304,104.112,128.448,104.112,128.448,104.256,128.592,104.256,128.592,104.4,128.736,104.4,128.736,104.544,128.88,104.544,128.88,104.688,129.024,104.688,129.024,104.832,129.168,104.832,129.168,104.976,129.312,104.976,129.312,105.12,129.456,105.12,129.456,105.264,129.6,105.264,129.6,105.408,129.744,105.408,129.744,105.552,129.888,105.552,129.888,105.696,130.032,105.696,130.032,105.84,130.176,105.84,130.176,105.984,130.32,105.984,130.32,106.128,130.464,106.128,130.464,106.272,130.608,106.272,130.608,106.416,130.752,106.416,130.752,106.56,130.896,106.56,130.896,106.704,131.04,106.704,131.04,106.848,131.184,106.848,131.184,106.992,131.328,106.992,131.328,107.136,131.472,107.136,131.472,107.28,131.616,107.28,131.616,107.424,131.76,107.424,131.76,107.568,131.904,107.568,131.904,107.712,132.048,107.712,132.048,107.856,132.192,107.856,132.192,108,132.336,108,132.336,108.144,132.48,108.144,132.48,108.288,132.624,108.288,132.624,108.432,132.768,108.432,132.768,108.576,132.912,108.576,132.912,108.72,133.056,108.72,133.056,108.864,133.2,108.864,133.2,109.008,133.344,109.008,133.344,109.152,133.488,109.152,133.488,109.296,133.632,109.296,133.632,109.44,133.776,109.44,133.776,109.584,133.92,109.584,133.92,109.728,134.064,109.728,134.064,109.872,134.208,109.872,134.208,110.016,143.568,110.016,143.568,110.16,144,110.16,144,110.304,144.288,110.304,144.288,110.448,144.576,110.448,144.576,110.592,144.72,110.592,144.72,110.736,144.864,110.736,144.864,110.88,145.008,110.88,145.008,111.024,145.152,111.024,145.152,111.168,145.296,111.168,145.296,111.312,145.44,111.312,145.44,111.456,145.584,111.456,145.584,111.744,145.728,111.744,145.728,112.032,145.872,112.032,145.872,112.464,146.016,112.464,146.016,114.336,145.872,114.336,145.872,114.768,145.728,114.768,145.728,115.056,145.584,115.056,145.584,115.344,145.44,115.344,145.44,115.488,145.296,115.488,145.296,115.632,145.152,115.632,145.152,115.776,145.008,115.776,145.008,115.92,144.864,115.92,144.864,116.064,144.72,116.064,144.72,116.208,144.432,116.208,144.432,117.648,144.576,117.648,144.576,117.792,144.72,117.792,144.72,117.936,144.864,117.936,144.864,118.08,145.008,118.08,145.008,118.224,145.152,118.224,145.152,118.368,145.296,118.368,145.296,118.512,145.44,118.512,145.44,118.656,145.584,118.656,145.584,118.944,145.728,118.944,145.728,119.232,145.872,119.232,145.872,119.664,146.016,119.664,146.016,121.536,145.872,121.536,145.872,121.968,145.728,121.968,145.728,122.256,145.584,122.256,145.584,123.696,163.008,123.696,163.008,119.376,151.632,119.376,151.632,53.568,163.008,53.568,163.008,0" stroke="none" stroke-width="0" />
     <polygon fill="black" points="0,23.76,0,31.248,17.424,31.248,17.424,88.848,0,88.848,0,95.04,62.784,95.04,62.784,94.896,62.352,94.896,62.352,94.752,62.064,94.752,62.064,94.608,61.776,94.608,61.776,94.464,61.488,94.464,61.488,94.32,61.344,94.32,61.344,94.176,61.2,94.176,61.2,94.032,61.056,94.032,61.056,93.888,60.912,93.888,60.912,93.744,60.768,93.744,60.768,93.456,60.624,93.456,60.624,93.168,60.48,93.168,60.48,92.88,60.336,92.88,60.336,92.304,60.192,92.304,60.192,91.296,60.336,91.296,60.336,90.72,60.48,90.72,60.48,90.432,60.624,90.432,60.624,90.144,60.768,90.144,60.768,89.856,60.912,89.856,60.912,89.712,61.056,89.712,61.056,89.568,61.2,89.568,61.2,89.424,61.344,89.424,61.344,89.28,61.488,89.28,61.488,89.136,61.776,89.136,61.776,88.992,62.064,88.992,62.064,87.408,61.776,87.408,61.776,87.264,61.488,87.264,61.488,87.12,61.344,87.12,61.344,86.976,61.2,86.976,61.2,86.832,61.056,86.832,61.056,86.688,60.912,86.688,60.912,86.544,60.768,86.544,60.768,86.256,60.624,86.256,60.624,85.968,60.48,85.968,60.48,85.68,60.336,85.68,60.336,85.104,60.192,85.104,60.192,84.096,60.336,84.096,60.336,83.52,60.48,83.52,60.48,83.232,60.624,83.232,60.624,82.944,60.768,82.944,60.768,82.656,60.912,82.656,60.912,82.512,61.056,82.512,61.056,82.368,61.2,82.368,61.2,82.224,61.344,82.224,61.344,82.08,61.488,82.08,61.488,81.936,61.776,81.936,61.776,81.792,62.064,81.792,62.064,80.208,61.776,80.208,61.776,80.064,61.488,80.064,61.488,79.92,61.344,79.92,61.344,79.776,61.2,79.776,61.2,79.632,61.056,79.632,61.056,79.488,60.912,79.488,60.912,79.344,60.768,79.344,60.768,79.056,60.624,79.056,60.624,78.768,60.48,78.768,60.48,78.48,60.336,78.48,60.336,77.904,60.192,77.904,60.192,76.896,60.336,76.896,60.336,76.32,60.48,76.32,60.48,76.032,60.624,76.032,60.624,75.744,60.768,75.744,60.768,75.456,60.912,75.456,60.912,75.312,61.056,75.312,61.056,75.168,61.2,75.168,61.2,75.024,61.344,75.024,61.344,74.88,61.488,74.88,61.488,74.736,61.776,74.736,61.776,74.592,62.064,74.592,62.064,73.008,61.776,73.008,61.776,72.864,61.488,72.864,61.488,72.72,61.344,72.72,61.344,72.576,61.2,72.576,61.2,72.432,61.056,72.432,61.056,72.288,60.912,72.288,60.912,72.144,60.768,72.144,60.768,71.856,60.624,71.856,60.624,71.568,60.48,71.568,60.48,71.28,60.336,71.28,60.336,70.704,60.192,70.704,60.192,69.696,60.336,69.696,60.336,69.12,60.48,69.12,60.48,68.832,60.624,68.832,60.624,68.544,60.768,68.544,60.768,68.256,60.912,68.256,60.912,68.112,61.056,68.112,61.056,67.968,61.2,67.968,61.2,67.824,61.344,67.824,61.344,67.68,61.488,67.68,61.488,67.536,61.776,67.536,61.776,67.392,62.064,67.392,62.064,65.808,61.776,65.808,61.776,65.664,61.488,65.664,61.488,65.52,61.344,65.52,61.344,65.376,61.2,65.376,61.2,65.232,61.056,65.232,61.056,65.088,60.912,65.088,60.912,64.944,60.768,64.944,60.768,64.656,60.624,64.656,60.624,64.368,60.48,64.368,60.48,64.08,60.336,64.08,60.336,63.504,60.192,63.504,60.192,62.496,60.336,62.496,60.336,61.92,60.48,61.92,60.48,61.632,60.624,61.632,60.624,61.344,60.768,61.344,60.768,61.056,60.912,61.056,60.912,60.912,61.056,60.912,61.056,60.768,61.2,60.768,61.2,60.624,61.344,60.624,61.344,60.48,61.488,60.48,61.488,60.336,61.776,60.336,61.776,60.192,62.064,60.192,62.064,58.608,61.776,58.608,61.776,58.464,61.488,58.464,61.488,58.32,61.344,58.32,61.344,58.176,61.2,58.176,61.2,58.032,61.056,58.032,61.056,57.888,60.912,57.888,60.912,57.744,60.768,57.744,60.768,57.456,60.624,57.456,60.624,57.168,60.48,57.168,60.48,56.88,60.336,56.88,60.336,56.304,60.192,56.304,60.192,55.296,60.336,55.296,60.336,54.72,60.48,54.72,60.48,54.432,60.624,54.432,60.624,54.144,60.768,54.144,60.768,53.856,60.912,53.856,60.912,53.712,61.056,53.712,61.056,53.568,61.2,53.568,61.2,53.424,61.344,53.424,61.344,53.28,61.488,53.28,61.488,53.136,61.776,53.136,61.776,52.992,62.064,52.992,62.064,51.408,61.776,51.408,61.776,51.264,61.488,51.264,61.488,51.12,61.344,51.12,61.344,50.976,61.2,50.976,61.2,50.832,61.056,50.832,61.056,50.688,60.912,50.688,60.912,50.544,60.768,50.544,60.768,50.256,60.624,50.256,60.624,49.968,60.48,49.968,60.48,49.68,60.336,49.68,60.336,49.104,60.192,49.104,60.192,48.096,60.336,48.096,60.336,47.52,60.48,47.52,60.48,47.232,60.624,47.232,60.624,46.944,60.768,46.944,60.768,46.656,60.912,46.656,60.912,46.512,61.056,46.512,61.056,46.368,61.2,46.368,61.2,46.224,61.344,46.224,61.344,46.08,61.488,46.08,61.488,45.936,61.776,45.936,61.776,45.792,62.064,45.792,62.064,44.208,61.776,44.208,61.776,44.064,61.488,44.064,61.488,43.92,61.344,43.92,61.344,43.776,61.2,43.776,61.2,43.632,61.056,43.632,61.056,43.488,60.912,43.488,60.912,43.344,60.768,43.344,60.768,43.056,60.624,43.056,60.624,42.768,60.48,42.768,60.48,42.48,60.336,42.48,60.336,41.904,60.192,41.904,60.192,40.896,60.336,40.896,60.336,40.32,60.48,40.32,60.48,40.032,60.624,40.032,60.624,39.744,60.768,39.744,60.768,39.456,60.912,39.456,60.912,39.312,61.056,39.312,61.056,39.168,61.2,39.168,61.2,39.024,61.344,39.024,61.344,38.88,61.488,38.88,61.488,38.736,61.776,38.736,61.776,38.592,62.064,38.592,62.064,37.008,61.776,37.008,61.776,36.864,61.488,36.864,61.488,36.72,61.344,36.72,61.344,36.576,61.2,36.576,61.2,36.432,61.056,36.432,61.056,36.288,60.912,36.288,60.912,36.144,60.768,36.144,60.768,35.856,60.624,35.856,60.624,35.568,60.48,35.568,60.48,35.28,60.336,35.28,60.336,34.704,60.192,34.704,60.192,33.696,60.336,33.696,60.336,33.12,60.48,33.12,60.48,32.832,60.624,32.832,60.624,32.544,60.768,32.544,60.768,32.256,60.912,32.256,60.912,32.112,61.056,32.112,61.056,31.968,61.2,31.968,61.2,31.824,61.344,31.824,61.344,31.68,61.488,31.68,61.488,31.536,61.776,31.536,61.776,31.392,62.064,31.392,62.064,29.808,61.776,29.808,61.776,29.664,61.488,29.664,61.488,29.52,61.344,29.52,61.344,29.376,61.2,29.376,61.2,29.232,61.056,29.232,61.056,29.088,60.912,29.088,60.912,28.944,60.768,28.944,60.768,28.656,60.624,28.656,60.624,28.368,60.48,28.368,60.48,28.08,60.336,28.08,60.336,27.504,60.192,27.504,60.192,26.496,60.336,26.496,60.336,25.92,60.48,25.92,60.48,25.632,60.624,25.632,60.624,25.344,60.768,25.344,60.768,25.056,60.912,25.056,60.912,24.912,61.056,24.912,61.056,24.768,61.2,24.768,61.2,24.624,61.344,24.624,61.344,24.48,61.488,24.48,61.488,24.336,61.776,24.336,61.776,24.192,62.064,24.192,62.064,24.048,62.352,24.048,62.352,23.904,62.784,23.904,62.784,23.76" stroke="none" stroke-width="0" />
     <polygon fill="black" points="66.384,32.832,66.384,32.976,66.528,32.976,66.528,33.408,66.672,33.408,66.672,34.992,66.528,34.992,66.528,35.424,66.384,35.424,66.384,35.712,66.24,35.712,66.24,36,66.096,36,66.096,36.144,65.952,36.144,65.952,36.288,65.808,36.288,65.808,36.432,65.664,36.432,65.664,36.576,65.52,36.576,65.52,36.72,65.376,36.72,65.376,36.864,65.088,36.864,65.088,37.008,64.944,37.008,64.944,38.592,65.232,38.592,65.232,38.736,65.376,38.736,65.376,38.88,65.52,38.88,65.52,39.024,65.664,39.024,65.664,39.168,65.808,39.168,65.808,39.312,65.952,39.312,65.952,39.456,66.096,39.456,66.096,39.6,66.24,39.6,66.24,39.888,66.384,39.888,66.384,40.176,66.528,40.176,66.528,40.608,66.672,40.608,66.672,42.192,66.528,42.192,66.528,42.624,66.384,42.624,66.384,42.912,66.24,42.912,66.24,43.2,66.096,43.2,66.096,43.344,65.952,43.344,65.952,43.488,65.808,43.488,65.808,43.632,65.664,43.632,65.664,43.776,65.52,43.776,65.52,43.92,65.376,43.92,65.376,44.064,65.088,44.064,65.088,44.208,64.944,44.208,64.944,45.792,65.232,45.792,65.232,45.936,65.376,45.936,65.376,46.08,65.52,46.08,65.52,46.224,65.664,46.224,65.664,46.368,65.808,46.368,65.808,46.512,65.952,46.512,65.952,46.656,66.096,46.656,66.096,46.8,66.24,46.8,66.24,47.088,66.384,47.088,66.384,47.376,66.528,47.376,66.528,47.808,66.672,47.808,66.672,49.392,66.528,49.392,66.528,49.824,66.384,49.824,66.384,50.112,66.24,50.112,66.24,50.4,66.096,50.4,66.096,50.544,65.952,50.544,65.952,50.688,65.808,50.688,65.808,50.832,65.664,50.832,65.664,50.976,65.52,50.976,65.52,51.12,65.376,51.12,65.376,51.264,65.088,51.264,65.088,51.408,64.944,51.408,64.944,52.992,65.232,52.992,65.232,53.136,65.376,53.136,65.376,53.28,65.52,53.28,65.52,53.424,65.664,53.424,65.664,53.568,65.808,53.568,65.808,53.712,65.952,53.712,65.952,53.856,66.096,53.856,66.096,54,66.24,54,66.24,54.288,66.384,54.288,66.384,54.576,66.528,54.576,66.528,55.008,66.672,55.008,66.672,56.592,66.528,56.592,66.528,57.024,66.384,57.024,66.384,57.312,66.24,57.312,66.24,57.6,66.096,57.6,66.096,57.744,65.952,57.744,65.952,57.888,65.808,57.888,65.808,58.032,65.664,58.032,65.664,58.176,65.52,58.176,65.52,58.32,65.376,58.32,65.376,58.464,65.088,58.464,65.088,58.608,64.944,58.608,64.944,60.192,65.232,60.192,65.232,60.336,65.376,60.336,65.376,60.48,65.52,60.48,65.52,60.624,65.664,60.624,65.664,60.768,65.808,60.768,65.808,60.912,65.952,60.912,65.952,61.056,66.096,61.056,66.096,61.2,66.24,61.2,66.24,61.488,66.384,61.488,66.384,61.776,66.528,61.776,66.528,62.208,66.672,62.208,66.672,63.792,66.528,63.792,66.528,64.224,66.384,64.224,66.384,64.512,66.24,64.512,66.24,64.8,66.096,64.8,66.096,64.944,65.952,64.944,65.952,65.088,65.808,65.088,65.808,65.232,65.664,65.232,65.664,65.376,65.52,65.376,65.52,65.52,65.376,65.52,65.376,65.664,65.088,65.664,65.088,65.808,64.944,65.808,64.944,67.392,65.232,67.392,65.232,67.536,65.376,67.536,65.376,67.68,65.52,67.68,65.52,67.824,65.664,67.824,65.664,67.968,65.808,67.968,65.808,68.112,65.952,68.112,65.952,68.256,66.096,68.256,66.096,68.4,66.24,68.4,66.24,68.544,73.152,68.544,73.152,32.832" stroke="none" stroke-width="0" />
     <polygon fill="black" points="66.24,79.056,66.24,79.2,66.096,79.2,66.096,79.344,65.952,79.344,65.952,79.488,65.808,79.488,65.808,79.632,65.664,79.632,65.664,79.776,65.52,79.776,65.52,79.92,65.376,79.92,65.376,80.064,65.088,80.064,65.088,80.208,64.944,80.208,64.944,81.792,65.232,81.792,65.232,81.936,65.376,81.936,65.376,82.08,65.52,82.08,65.52,82.224,65.664,82.224,65.664,82.368,65.808,82.368,65.808,82.512,65.952,82.512,65.952,82.656,66.096,82.656,66.096,82.8,66.24,82.8,66.24,83.088,66.384,83.088,66.384,83.376,66.528,83.376,66.528,83.808,66.672,83.808,66.672,85.392,66.528,85.392,66.528,85.824,66.384,85.824,66.384,86.112,66.24,86.112,66.24,86.4,66.096,86.4,66.096,86.544,65.952,86.544,65.952,86.688,65.808,86.688,65.808,86.832,65.664,86.832,65.664,86.976,65.52,86.976,65.52,87.12,65.376,87.12,65.376,87.264,65.088,87.264,65.088,87.408,64.944,87.408,64.944,88.992,65.232,88.992,65.232,89.136,65.376,89.136,65.376,89.28,65.52,89.28,65.52,89.424,65.664,89.424,65.664,89.568,65.808,89.568,65.808,89.712,65.952,89.712,65.952,89.856,66.096,89.856,66.096,90,66.24,90,66.24,90.288,66.384,90.288,66.384,90.576,66.528,90.576,66.528,91.008,66.672,91.008,66.672,92.592,66.528,92.592,66.528,93.024,66.384,93.024,66.384,93.312,66.24,93.312,66.24,93.6,66.096,93.6,66.096,93.744,65.952,93.744,65.952,93.888,65.808,93.888,65.808,94.032,65.664,94.032,65.664,94.176,65.52,94.176,65.52,94.32,65.376,94.32,65.376,94.464,65.088,94.464,65.088,94.608,64.944,94.608,64.944,94.752,64.512,94.752,64.512,94.896,64.08,94.896,64.08,95.04,90.72,95.04,90.72,85.104,90.576,85.104,90.576,84.96,90.432,84.96,90.432,84.816,90.288,84.816,90.288,84.672,90.144,84.672,90.144,84.528,90,84.528,90,84.384,89.856,84.384,89.856,84.24,89.712,84.24,89.712,84.096,89.424,84.096,89.424,83.952,89.28,83.952,89.28,83.808,73.152,83.808,73.152,79.056" stroke="none" stroke-width="0" />
     <polygon fill="black" points="0,95.04,0,95.184,90.72,95.184,90.72,95.04" stroke="none" stroke-width="0" />
     <polygon fill="black" points="0,95.04,0,95.184,90.72,95.184,90.72,95.04" stroke="none" stroke-width="0" />
     <polygon fill="black" points="0,95.184,0,110.016,114.768,110.016,114.768,110.16,115.2,110.16,115.2,110.304,115.488,110.304,115.488,110.448,115.776,110.448,115.776,110.592,115.92,110.592,115.92,110.736,116.064,110.736,116.064,110.88,116.208,110.88,116.208,111.024,116.352,111.024,116.352,111.168,116.496,111.168,116.496,111.312,116.64,111.312,116.64,111.456,116.784,111.456,116.784,111.6,118.224,111.6,118.224,111.312,118.368,111.312,118.368,111.168,118.512,111.168,118.512,111.024,118.656,111.024,118.656,110.88,118.8,110.88,118.8,110.736,118.944,110.736,118.944,110.592,119.232,110.592,119.232,110.448,119.52,110.448,119.52,110.304,119.664,110.304,119.664,110.16,120.24,110.16,120.24,110.016,121.248,110.016,121.248,108.576,121.104,108.576,121.104,108.432,120.96,108.432,120.96,108.288,120.816,108.288,120.816,108.144,120.672,108.144,120.672,108,120.528,108,120.528,107.856,99.216,107.856,99.216,107.712,98.784,107.712,98.784,107.568,98.496,107.568,98.496,107.424,98.352,107.424,98.352,107.28,98.208,107.28,98.208,107.136,98.064,107.136,98.064,106.992,97.92,106.992,97.92,106.848,97.776,106.848,97.776,106.704,97.632,106.704,97.632,106.56,97.488,106.56,97.488,106.416,97.344,106.416,97.344,106.272,97.2,106.272,97.2,106.128,97.056,106.128,97.056,105.984,96.912,105.984,96.912,105.84,96.768,105.84,96.768,105.696,96.624,105.696,96.624,105.552,96.48,105.552,96.48,105.408,96.336,105.408,96.336,105.264,96.192,105.264,96.192,105.12,96.048,105.12,96.048,104.976,95.904,104.976,95.904,104.832,95.76,104.832,95.76,104.688,95.616,104.688,95.616,104.544,95.472,104.544,95.472,104.4,95.328,104.4,95.328,104.256,95.184,104.256,95.184,104.112,95.04,104.112,95.04,103.968,94.896,103.968,94.896,103.824,94.752,103.824,94.752,103.68,94.608,103.68,94.608,103.536,94.464,103.536,94.464,103.392,94.32,103.392,94.32,103.248,94.176,103.248,94.176,103.104,94.032,103.104,94.032,102.96,93.888,102.96,93.888,102.816,93.744,102.816,93.744,102.672,93.6,102.672,93.6,102.528,93.456,102.528,93.456,102.384,93.312,102.384,93.312,102.24,93.168,102.24,93.168,102.096,93.024,102.096,93.024,101.952,92.88,101.952,92.88,101.808,92.736,101.808,92.736,101.664,92.592,101.664,92.592,101.52,92.448,101.52,92.448,101.376,92.304,101.376,92.304,101.232,92.16,101.232,92.16,101.088,92.016,101.088,92.016,100.944,91.872,100.944,91.872,100.8,91.728,100.8,91.728,100.656,91.584,100.656,91.584,100.512,91.44,100.512,91.44,100.368,91.296,100.368,91.296,100.224,91.152,100.224,91.152,100.08,91.008,100.08,91.008,99.936,90.864,99.936,90.864,99.648,90.72,99.648,90.72,95.184" stroke="none" stroke-width="0" />
     <polygon fill="black" points="0,110.016,0,123.696,2.88,123.696,2.88,122.112,2.736,122.112,2.736,121.824,2.592,121.824,2.592,121.392,2.448,121.392,2.448,119.808,2.592,119.808,2.592,119.376,2.736,119.376,2.736,119.088,2.88,119.088,2.88,118.8,3.024,118.8,3.024,118.512,3.168,118.512,3.168,118.368,3.312,118.368,3.312,118.224,3.456,118.224,3.456,118.08,3.6,118.08,3.6,117.936,3.744,117.936,3.744,117.792,4.032,117.792,4.032,116.208,3.744,116.208,3.744,116.064,3.6,116.064,3.6,115.92,3.456,115.92,3.456,115.776,3.312,115.776,3.312,115.632,3.168,115.632,3.168,115.344,3.024,115.344,3.024,115.2,2.88,115.2,2.88,114.912,2.736,114.912,2.736,114.624,2.592,114.624,2.592,114.192,2.448,114.192,2.448,112.608,2.592,112.608,2.592,112.176,2.736,112.176,2.736,111.888,2.88,111.888,2.88,111.6,3.024,111.6,3.024,111.312,3.168,111.312,3.168,111.168,3.312,111.168,3.312,111.024,3.456,111.024,3.456,110.88,3.6,110.88,3.6,110.736,3.744,110.736,3.744,110.592,4.032,110.592,4.032,110.448,4.32,110.448,4.32,110.304,4.464,110.304,4.464,110.16,5.04,110.16,5.04,110.016" stroke="none" stroke-width="0" />
     <polygon fill="black" points="6.768,110.016,6.768,110.16,7.2,110.16,7.2,110.304,7.488,110.304,7.488,110.448,7.776,110.448,7.776,110.592,7.92,110.592,7.92,110.736,8.064,110.736,8.064,110.88,8.208,110.88,8.208,111.024,8.352,111.024,8.352,111.168,8.496,111.168,8.496,111.312,8.64,111.312,8.64,111.456,8.784,111.456,8.784,111.6,10.224,111.6,10.224,111.312,10.368,111.312,10.368,111.168,10.512,111.168,10.512,111.024,10.656,111.024,10.656,110.88,10.8,110.88,10.8,110.736,10.944,110.736,10.944,110.592,11.232,110.592,11.232,110.448,11.52,110.448,11.52,110.304,11.664,110.304,11.664,110.16,12.24,110.16,12.24,110.016" stroke="none" stroke-width="0" />
     <polygon fill="black" points="13.968,110.016,13.968,110.16,14.4,110.16,14.4,110.304,14.688,110.304,14.688,110.448,14.976,110.448,14.976,110.592,15.12,110.592,15.12,110.736,15.264,110.736,15.264,110.88,15.408,110.88,15.408,111.024,15.552,111.024,15.552,111.168,15.696,111.168,15.696,111.312,15.84,111.312,15.84,111.456,15.984,111.456,15.984,111.6,17.424,111.6,17.424,111.312,17.568,111.312,17.568,111.168,17.712,111.168,17.712,111.024,17.856,111.024,17.856,110.88,18,110.88,18,110.736,18.144,110.736,18.144,110.592,18.432,110.592,18.432,110.448,18.72,110.448,18.72,110.304,18.864,110.304,18.864,110.16,19.44,110.16,19.44,110.016" stroke="none" stroke-width="0" />
     <polygon fill="black" points="21.168,110.016,21.168,110.16,21.6,110.16,21.6,110.304,21.888,110.304,21.888,110.448,22.176,110.448,22.176,110.592,22.32,110.592,22.32,110.736,22.464,110.736,22.464,110.88,22.608,110.88,22.608,111.024,22.752,111.024,22.752,111.168,22.896,111.168,22.896,111.312,23.04,111.312,23.04,111.456,23.184,111.456,23.184,111.6,24.624,111.6,24.624,111.312,24.768,111.312,24.768,111.168,24.912,111.168,24.912,111.024,25.056,111.024,25.056,110.88,25.2,110.88,25.2,110.736,25.344,110.736,25.344,110.592,25.632,110.592,25.632,110.448,25.92,110.448,25.92,110.304,26.064,110.304,26.064,110.16,26.64,110.16,26.64,110.016" stroke="none" stroke-width="0" />
     <polygon fill="black" points="28.368,110.016,28.368,110.16,28.8,110.16,28.8,110.304,29.088,110.304,29.088,110.448,29.376,110.448,29.376,110.592,29.52,110.592,29.52,110.736,29.664,110.736,29.664,110.88,29.808,110.88,29.808,111.024,29.952,111.024,29.952,111.168,30.096,111.168,30.096,111.312,30.24,111.312,30.24,111.456,30.384,111.456,30.384,111.6,31.824,111.6,31.824,111.312,31.968,111.312,31.968,111.168,32.112,111.168,32.112,111.024,32.256,111.024,32.256,110.88,32.4,110.88,32.4,110.736,32.544,110.736,32.544,110.592,32.832,110.592,32.832,110.448,33.12,110.448,33.12,110.304,33.264,110.304,33.264,110.16,33.84,110.16,33.84,110.016" stroke="none" stroke-width="0" />
     <polygon fill="black" points="35.568,110.016,35.568,110.16,36,110.16,36,110.304,36.288,110.304,36.288,110.448,36.576,110.448,36.576,110.592,36.72,110.592,36.72,110.736,36.864,110.736,36.864,110.88,37.008,110.88,37.008,111.024,37.152,111.024,37.152,111.168,37.296,111.168,37.296,111.312,37.44,111.312,37.44,111.456,37.584,111.456,37.584,111.6,39.024,111.6,39.024,111.312,39.168,111.312,39.168,111.168,39.312,111.168,39.312,111.024,39.456,111.024,39.456,110.88,39.6,110.88,39.6,110.736,39.744,110.736,39.744,110.592,40.032,110.592,40.032,110.448,40.32,110.448,40.32,110.304,40.464,110.304,40.464,110.16,41.04,110.16,41.04,110.016" stroke="none" stroke-width="0" />
     <polygon fill="black" points="42.768,110.016,42.768,110.16,43.2,110.16,43.2,110.304,43.488,110.304,43.488,110.448,43.776,110.448,43.776,110.592,43.92,110.592,43.92,110.736,44.064,110.736,44.064,110.88,44.208,110.88,44.208,111.024,44.352,111.024,44.352,111.168,44.496,111.168,44.496,111.312,44.64,111.312,44.64,111.456,44.784,111.456,44.784,111.6,46.224,111.6,46.224,111.312,46.368,111.312,46.368,111.168,46.512,111.168,46.512,111.024,46.656,111.024,46.656,110.88,46.8,110.88,46.8,110.736,46.944,110.736,46.944,110.592,47.232,110.592,47.232,110.448,47.52,110.448,47.52,110.304,47.664,110.304,47.664,110.16,48.24,110.16,48.24,110.016" stroke="none" stroke-width="0" />
     <polygon fill="black" points="49.968,110.016,49.968,110.16,50.4,110.16,50.4,110.304,50.688,110.304,50.688,110.448,50.976,110.448,50.976,110.592,51.12,110.592,51.12,110.736,51.264,110.736,51.264,110.88,51.408,110.88,51.408,111.024,51.552,111.024,51.552,111.168,51.696,111.168,51.696,111.312,51.84,111.312,51.84,111.456,51.984,111.456,51.984,111.6,53.424,111.6,53.424,111.312,53.568,111.312,53.568,111.168,53.712,111.168,53.712,111.024,53.856,111.024,53.856,110.88,54,110.88,54,110.736,54.144,110.736,54.144,110.592,54.432,110.592,54.432,110.448,54.72,110.448,54.72,110.304,54.864,110.304,54.864,110.16,55.44,110.16,55.44,110.016" stroke="none" stroke-width="0" />
     <polygon fill="black" points="57.168,110.016,57.168,110.16,57.6,110.16,57.6,110.304,57.888,110.304,57.888,110.448,58.176,110.448,58.176,110.592,58.32,110.592,58.32,110.736,58.464,110.736,58.464,110.88,58.608,110.88,58.608,111.024,58.752,111.024,58.752,111.168,58.896,111.168,58.896,111.312,59.04,111.312,59.04,111.456,59.184,111.456,59.184,111.6,60.624,111.6,60.624,111.312,60.768,111.312,60.768,111.168,60.912,111.168,60.912,111.024,61.056,111.024,61.056,110.88,61.2,110.88,61.2,110.736,61.344,110.736,61.344,110.592,61.632,110.592,61.632,110.448,61.92,110.448,61.92,110.304,62.064,110.304,62.064,110.16,62.64,110.16,62.64,110.016" stroke="none" stroke-width="0" />
     <polygon fill="black" points="64.368,110.016,64.368,110.16,64.8,110.16,64.8,110.304,65.088,110.304,65.088,110.448,65.376,110.448,65.376,110.592,65.52,110.592,65.52,110.736,65.664,110.736,65.664,110.88,65.808,110.88,65.808,111.024,65.952,111.024,65.952,111.168,66.096,111.168,66.096,111.312,66.24,111.312,66.24,111.456,66.384,111.456,66.384,111.6,67.824,111.6,67.824,111.312,67.968,111.312,67.968,111.168,68.112,111.168,68.112,111.024,68.256,111.024,68.256,110.88,68.4,110.88,68.4,110.736,68.544,110.736,68.544,110.592,68.832,110.592,68.832,110.448,69.12,110.448,69.12,110.304,69.264,110.304,69.264,110.16,69.84,110.16,69.84,110.016" stroke="none" stroke-width="0" />
     <polygon fill="black" points="71.568,110.016,71.568,110.16,72,110.16,72,110.304,72.288,110.304,72.288,110.448,72.576,110.448,72.576,110.592,72.72,110.592,72.72,110.736,72.864,110.736,72.864,110.88,73.008,110.88,73.008,111.024,73.152,111.024,73.152,111.168,73.296,111.168,73.296,111.312,73.44,111.312,73.44,111.456,73.584,111.456,73.584,111.6,75.024,111.6,75.024,111.312,75.168,111.312,75.168,111.168,75.312,111.168,75.312,111.024,75.456,111.024,75.456,110.88,75.6,110.88,75.6,110.736,75.744,110.736,75.744,110.592,76.032,110.592,76.032,110.448,76.32,110.448,76.32,110.304,76.464,110.304,76.464,110.16,77.04,110.16,77.04,110.016" stroke="none" stroke-width="0" />
     <polygon fill="black" points="78.768,110.016,78.768,110.16,79.2,110.16,79.2,110.304,79.488,110.304,79.488,110.448,79.776,110.448,79.776,110.592,79.92,110.592,79.92,110.736,80.064,110.736,80.064,110.88,80.208,110.88,80.208,111.024,80.352,111.024,80.352,111.168,80.496,111.168,80.496,111.312,80.64,111.312,80.64,111.456,80.784,111.456,80.784,111.6,82.224,111.6,82.224,111.312,82.368,111.312,82.368,111.168,82.512,111.168,82.512,111.024,82.656,111.024,82.656,110.88,82.8,110.88,82.8,110.736,82.944,110.736,82.944,110.592,83.232,110.592,83.232,110.448,83.52,110.448,83.52,110.304,83.664,110.304,83.664,110.16,84.24,110.16,84.24,110.016" stroke="none" stroke-width="0" />
     <polygon fill="black" points="85.968,110.016,85.968,110.16,86.4,110.16,86.4,110.304,86.688,110.304,86.688,110.448,86.976,110.448,86.976,110.592,87.12,110.592,87.12,110.736,87.264,110.736,87.264,110.88,87.408,110.88,87.408,111.024,87.552,111.024,87.552,111.168,87.696,111.168,87.696,111.312,87.84,111.312,87.84,111.456,87.984,111.456,87.984,111.6,89.424,111.6,89.424,111.312,89.568,111.312,89.568,111.168,89.712,111.168,89.712,111.024,89.856,111.024,89.856,110.88,90,110.88,90,110.736,90.144,110.736,90.144,110.592,90.432,110.592,90.432,110.448,90.72,110.448,90.72,110.304,90.864,110.304,90.864,110.16,91.44,110.16,91.44,110.016" stroke="none" stroke-width="0" />
     <polygon fill="black" points="93.168,110.016,93.168,110.16,93.6,110.16,93.6,110.304,93.888,110.304,93.888,110.448,94.176,110.448,94.176,110.592,94.32,110.592,94.32,110.736,94.464,110.736,94.464,110.88,94.608,110.88,94.608,111.024,94.752,111.024,94.752,111.168,94.896,111.168,94.896,111.312,95.04,111.312,95.04,111.456,95.184,111.456,95.184,111.6,96.624,111.6,96.624,111.312,96.768,111.312,96.768,111.168,96.912,111.168,96.912,111.024,97.056,111.024,97.056,110.88,97.2,110.88,97.2,110.736,97.344,110.736,97.344,110.592,97.632,110.592,97.632,110.448,97.92,110.448,97.92,110.304,98.064,110.304,98.064,110.16,98.64,110.16,98.64,110.016" stroke="none" stroke-width="0" />
     <polygon fill="black" points="100.368,110.016,100.368,110.16,100.8,110.16,100.8,110.304,101.088,110.304,101.088,110.448,101.376,110.448,101.376,110.592,101.52,110.592,101.52,110.736,101.664,110.736,101.664,110.88,101.808,110.88,101.808,111.024,101.952,111.024,101.952,111.168,102.096,111.168,102.096,111.312,102.24,111.312,102.24,111.456,102.384,111.456,102.384,111.6,103.824,111.6,103.824,111.312,103.968,111.312,103.968,111.168,104.112,111.168,104.112,111.024,104.256,111.024,104.256,110.88,104.4,110.88,104.4,110.736,104.544,110.736,104.544,110.592,104.832,110.592,104.832,110.448,105.12,110.448,105.12,110.304,105.264,110.304,105.264,110.16,105.84,110.16,105.84,110.016" stroke="none" stroke-width="0" />
     <polygon fill="black" points="107.568,110.016,107.568,110.16,108,110.16,108,110.304,108.288,110.304,108.288,110.448,108.576,110.448,108.576,110.592,108.72,110.592,108.72,110.736,108.864,110.736,108.864,110.88,109.008,110.88,109.008,111.024,109.152,111.024,109.152,111.168,109.296,111.168,109.296,111.312,109.44,111.312,109.44,111.456,109.584,111.456,109.584,111.6,111.024,111.6,111.024,111.312,111.168,111.312,111.168,111.168,111.312,111.168,111.312,111.024,111.456,111.024,111.456,110.88,111.6,110.88,111.6,110.736,111.744,110.736,111.744,110.592,112.032,110.592,112.032,110.448,112.32,110.448,112.32,110.304,112.464,110.304,112.464,110.16,113.04,110.16,113.04,110.016" stroke="none" stroke-width="0" />
     <polygon fill="black" points="136.368,110.016,136.368,110.16,136.8,110.16,136.8,110.304,137.088,110.304,137.088,110.448,137.376,110.448,137.376,110.592,137.52,110.592,137.52,110.736,137.664,110.736,137.664,110.88,137.808,110.88,137.808,111.024,137.952,111.024,137.952,111.168,138.096,111.168,138.096,111.312,138.24,111.312,138.24,111.456,138.384,111.456,138.384,111.6,139.824,111.6,139.824,111.312,139.968,111.312,139.968,111.168,140.112,111.168,140.112,111.024,140.256,111.024,140.256,110.88,140.4,110.88,140.4,110.736,140.544,110.736,140.544,110.592,140.832,110.592,140.832,110.448,141.12,110.448,141.12,110.304,141.264,110.304,141.264,110.16,141.84,110.16,141.84,110.016" stroke="none" stroke-width="0" />
     <g id="connector0pad" >
      <circle fill="black" cy="5.91887" cx="5.9805" stroke="none" r="2.7" stroke-width="0" />
     </g>
    </g>
   </g>
  </g>
  <g partID="855636370">
   <g transform="translate(67.824,74.592)">
    <g id="groundplane" >
     <g id="connector0pad" >
      <polygon fill="black" points="1.296,0,1.296,0.288,1.152,0.288,1.152,0.432,1.008,0.432,1.008,0.576,0.864,0.576,0.864,0.72,0.72,0.72,0.72,0.864,0.576,0.864,0.576,1.008,0.432,1.008,0.432,1.152,0.144,1.152,0.144,1.296,0,1.296,0,2.88,0.288,2.88,0.288,3.024,0.432,3.024,0.432,3.168,0.576,3.168,0.576,3.312,0.72,3.312,0.72,3.456,0.864,3.456,0.864,3.6,1.008,3.6,1.008,3.744,1.152,3.744,1.152,3.888,1.296,3.888,1.296,4.176,8.208,4.176,8.208,0" stroke="none" stroke-width="0" />
     </g>
    </g>
   </g>
  </g>
  <g partID="855636380">
   <g transform="translate(96.768,86.688)">
    <g id="groundplane" >
     <polygon fill="black" points="0,0,0,14.688,0.144,14.688,0.144,14.832,0.288,14.832,0.288,14.976,0.432,14.976,0.432,15.12,0.576,15.12,0.576,15.264,0.72,15.264,0.72,15.408,0.864,15.408,0.864,15.552,1.008,15.552,1.008,15.696,1.152,15.696,1.152,15.84,1.296,15.84,1.296,15.984,1.44,15.984,1.44,16.128,1.584,16.128,1.584,16.272,1.728,16.272,1.728,16.416,1.872,16.416,1.872,16.56,2.016,16.56,2.016,16.704,2.16,16.704,2.16,16.848,2.304,16.848,2.304,16.992,2.448,16.992,2.448,17.136,2.592,17.136,2.592,17.28,2.736,17.28,2.736,17.424,2.88,17.424,2.88,17.568,3.024,17.568,3.024,17.712,3.168,17.712,3.168,17.856,3.312,17.856,3.312,18,3.456,18,3.456,18.144,3.6,18.144,3.6,18.288,3.744,18.288,3.744,18.432,3.888,18.432,3.888,18.576,4.032,18.576,4.032,18.72,4.176,18.72,4.176,18.864,4.32,18.864,4.32,19.008,4.464,19.008,4.464,19.152,4.608,19.152,4.608,19.296,4.752,19.296,4.752,19.44,4.896,19.44,4.896,19.584,5.04,19.584,5.04,19.728,5.184,19.728,5.184,19.872,5.328,19.872,5.328,20.016,5.472,20.016,5.472,20.16,5.616,20.16,5.616,20.304,5.76,20.304,5.76,20.448,5.904,20.448,5.904,20.592,6.048,20.592,6.048,20.736,6.192,20.736,6.192,20.88,27.648,20.88,27.648,21.024,27.936,21.024,27.936,21.168,28.224,21.168,28.224,21.312,28.368,21.312,28.368,21.456,28.512,21.456,28.512,21.6,28.656,21.6,28.656,21.744,28.8,21.744,28.8,21.888,28.944,21.888,28.944,22.032,29.088,22.032,29.088,22.176,29.232,22.176,29.232,22.32,29.376,22.32,29.376,22.464,29.52,22.464,29.52,22.608,29.664,22.608,29.664,22.752,29.808,22.752,29.808,22.896,29.952,22.896,29.952,23.04,30.096,23.04,30.096,23.184,30.24,23.184,30.24,23.328,30.384,23.328,30.384,23.472,30.528,23.472,30.528,23.616,30.672,23.616,30.672,23.76,30.816,23.76,30.816,23.904,30.96,23.904,30.96,24.048,31.104,24.048,31.104,24.192,31.248,24.192,31.248,24.336,31.392,24.336,31.392,24.48,31.536,24.48,31.536,24.624,31.68,24.624,31.68,24.768,31.824,24.768,31.824,24.912,31.968,24.912,31.968,25.056,32.112,25.056,32.112,25.2,32.256,25.2,32.256,25.344,32.4,25.344,32.4,25.488,32.544,25.488,32.544,25.632,32.688,25.632,32.688,25.776,32.832,25.776,32.832,25.92,32.976,25.92,32.976,26.064,33.12,26.064,33.12,26.208,34.56,26.208,34.56,24.768,34.416,24.768,34.416,24.624,34.272,24.624,34.272,24.48,34.128,24.48,34.128,24.336,33.984,24.336,33.984,24.192,33.84,24.192,33.84,24.048,33.696,24.048,33.696,23.904,33.552,23.904,33.552,23.76,33.408,23.76,33.408,23.616,33.264,23.616,33.264,23.472,33.12,23.472,33.12,23.328,32.976,23.328,32.976,23.184,32.832,23.184,32.832,23.04,32.688,23.04,32.688,22.896,32.544,22.896,32.544,22.752,32.4,22.752,32.4,22.608,32.256,22.608,32.256,22.464,32.112,22.464,32.112,22.32,31.968,22.32,31.968,22.176,31.824,22.176,31.824,22.032,31.68,22.032,31.68,21.888,31.536,21.888,31.536,21.744,31.392,21.744,31.392,21.6,31.248,21.6,31.248,21.456,31.104,21.456,31.104,21.312,30.96,21.312,30.96,21.168,30.816,21.168,30.816,21.024,30.672,21.024,30.672,20.88,30.528,20.88,30.528,20.736,30.384,20.736,30.384,20.592,30.24,20.592,30.24,20.448,30.096,20.448,30.096,20.304,29.952,20.304,29.952,20.16,29.808,20.16,29.808,20.016,29.664,20.016,29.664,19.872,29.52,19.872,29.52,19.728,29.376,19.728,29.376,19.584,29.232,19.584,29.232,19.44,29.088,19.44,29.088,19.296,28.944,19.296,28.944,19.152,28.8,19.152,28.8,19.008,28.656,19.008,28.656,18.864,28.512,18.864,28.512,18.72,28.368,18.72,28.368,18.576,28.224,18.576,28.224,18.432,28.08,18.432,28.08,18.288,27.936,18.288,27.936,18.144,27.792,18.144,27.792,18,27.648,18,27.648,17.856,27.504,17.856,27.504,17.712,27.36,17.712,27.36,17.568,27.216,17.568,27.216,17.424,27.072,17.424,27.072,17.28,26.928,17.28,26.928,17.136,26.784,17.136,26.784,16.992,26.64,16.992,26.64,16.848,26.496,16.848,26.496,16.704,12.24,16.704,12.24,16.56,11.952,16.56,11.952,16.416,11.808,16.416,11.808,16.272,11.664,16.272,11.664,16.128,11.52,16.128,11.52,15.984,11.376,15.984,11.376,15.84,11.232,15.84,11.232,15.696,11.088,15.696,11.088,15.552,10.944,15.552,10.944,15.408,10.8,15.408,10.8,15.264,10.656,15.264,10.656,15.12,10.512,15.12,10.512,14.976,10.368,14.976,10.368,14.832,10.224,14.832,10.224,14.688,10.08,14.688,10.08,14.544,9.936,14.544,9.936,14.4,9.792,14.4,9.792,14.256,9.648,14.256,9.648,14.112,9.504,14.112,9.504,13.968,9.36,13.968,9.36,13.824,9.216,13.824,9.216,13.68,9.072,13.68,9.072,13.536,8.928,13.536,8.928,13.392,8.784,13.392,8.784,13.248,8.64,13.248,8.64,13.104,8.496,13.104,8.496,12.96,8.352,12.96,8.352,12.816,8.208,12.816,8.208,12.672,8.064,12.672,8.064,12.528,7.92,12.528,7.92,12.384,7.776,12.384,7.776,12.24,7.632,12.24,7.632,12.096,7.488,12.096,7.488,11.952,7.344,11.952,7.344,11.808,7.2,11.808,7.2,11.664,7.056,11.664,7.056,11.52,6.912,11.52,6.912,11.376,6.768,11.376,6.768,11.232,6.624,11.232,6.624,11.088,6.48,11.088,6.48,10.944,6.336,10.944,6.336,10.8,6.192,10.8,6.192,10.656,6.048,10.656,6.048,10.512,5.904,10.512,5.904,10.368,5.76,10.368,5.76,10.224,5.616,10.224,5.616,10.08,5.472,10.08,5.472,9.936,5.328,9.936,5.328,9.792,5.184,9.792,5.184,9.648,5.04,9.648,5.04,9.504,4.896,9.504,4.896,9.36,4.752,9.36,4.752,9.216,4.608,9.216,4.608,9.072,4.464,9.072,4.464,8.928,4.32,8.928,4.32,8.784,4.176,8.784,4.176,8.352,4.032,8.352,4.032,0" stroke="none" stroke-width="0" />
     <g id="connector0pad" >
      <circle fill="black" cy="15.093" cx="5.51977" stroke="none" r="2.7" stroke-width="0" />
     </g>
    </g>
   </g>
  </g>
  <g partID="855636390">
   <g transform="translate(10.512,118.08)">
    <g id="groundplane" >
     <g id="connector0pad" >
      <polygon fill="black" points="1.152,0,1.152,0.144,1.008,0.144,1.008,0.288,0.864,0.288,0.864,0.432,0.72,0.432,0.72,0.576,0.576,0.576,0.576,0.72,0.432,0.72,0.432,0.864,0.288,0.864,0.288,1.008,0,1.008,0,2.448,0.144,2.448,0.144,2.592,0.288,2.592,0.288,2.736,0.432,2.736,0.432,2.88,0.576,2.88,0.576,3.024,0.72,3.024,0.72,3.168,0.864,3.168,0.864,3.312,1.008,3.312,1.008,3.456,1.152,3.456,1.152,3.6,2.592,3.6,2.592,3.312,2.736,3.312,2.736,3.168,2.88,3.168,2.88,3.024,3.024,3.024,3.024,2.88,3.168,2.88,3.168,2.736,3.312,2.736,3.312,2.592,3.6,2.592,3.6,1.008,3.456,1.008,3.456,0.864,3.168,0.864,3.168,0.72,3.024,0.72,3.024,0.576,2.88,0.576,2.88,0.432,2.736,0.432,2.736,0.144,2.592,0.144,2.592,0" stroke="none" stroke-width="0" />
     </g>
    </g>
   </g>
  </g>
  <g partID="855636400">
   <g transform="translate(17.712,118.08)">
    <g id="groundplane" >
     <g id="connector0pad" >
      <polygon fill="black" points="1.152,0,1.152,0.144,1.008,0.144,1.008,0.288,0.864,0.288,0.864,0.432,0.72,0.432,0.72,0.576,0.576,0.576,0.576,0.72,0.432,0.72,0.432,0.864,0.288,0.864,0.288,1.008,0,1.008,0,2.448,0.144,2.448,0.144,2.592,0.288,2.592,0.288,2.736,0.432,2.736,0.432,2.88,0.576,2.88,0.576,3.024,0.72,3.024,0.72,3.168,0.864,3.168,0.864,3.312,1.008,3.312,1.008,3.456,1.152,3.456,1.152,3.6,2.592,3.6,2.592,3.312,2.736,3.312,2.736,3.168,2.88,3.168,2.88,3.024,3.024,3.024,3.024,2.88,3.168,2.88,3.168,2.736,3.312,2.736,3.312,2.592,3.6,2.592,3.6,1.008,3.456,1.008,3.456,0.864,3.168,0.864,3.168,0.72,3.024,0.72,3.024,0.576,2.88,0.576,2.88,0.432,2.736,0.432,2.736,0.144,2.592,0.144,2.592,0" stroke="none" stroke-width="0" />
     </g>
    </g>
   </g>
  </g>
  <g partID="855636410">
   <g transform="translate(24.912,118.08)">
    <g id="groundplane" >
     <g id="connector0pad" >
      <polygon fill="black" points="1.152,0,1.152,0.144,1.008,0.144,1.008,0.288,0.864,0.288,0.864,0.432,0.72,0.432,0.72,0.576,0.576,0.576,0.576,0.72,0.432,0.72,0.432,0.864,0.288,0.864,0.288,1.008,0,1.008,0,2.448,0.144,2.448,0.144,2.592,0.288,2.592,0.288,2.736,0.432,2.736,0.432,2.88,0.576,2.88,0.576,3.024,0.72,3.024,0.72,3.168,0.864,3.168,0.864,3.312,1.008,3.312,1.008,3.456,1.152,3.456,1.152,3.6,2.592,3.6,2.592,3.312,2.736,3.312,2.736,3.168,2.88,3.168,2.88,3.024,3.024,3.024,3.024,2.88,3.168,2.88,3.168,2.736,3.312,2.736,3.312,2.592,3.6,2.592,3.6,1.008,3.456,1.008,3.456,0.864,3.168,0.864,3.168,0.72,3.024,0.72,3.024,0.576,2.88,0.576,2.88,0.432,2.736,0.432,2.736,0.144,2.592,0.144,2.592,0" stroke="none" stroke-width="0" />
     </g>
    </g>
   </g>
  </g>
  <g partID="855636420">
   <g transform="translate(32.112,118.08)">
    <g id="groundplane" >
     <g id="connector0pad" >
      <polygon fill="black" points="1.152,0,1.152,0.144,1.008,0.144,1.008,0.288,0.864,0.288,0.864,0.432,0.72,0.432,0.72,0.576,0.576,0.576,0.576,0.72,0.432,0.72,0.432,0.864,0.288,0.864,0.288,1.008,0,1.008,0,2.448,0.144,2.448,0.144,2.592,0.288,2.592,0.288,2.736,0.432,2.736,0.432,2.88,0.576,2.88,0.576,3.024,0.72,3.024,0.72,3.168,0.864,3.168,0.864,3.312,1.008,3.312,1.008,3.456,1.152,3.456,1.152,3.6,2.592,3.6,2.592,3.312,2.736,3.312,2.736,3.168,2.88,3.168,2.88,3.024,3.024,3.024,3.024,2.88,3.168,2.88,3.168,2.736,3.312,2.736,3.312,2.592,3.6,2.592,3.6,1.008,3.456,1.008,3.456,0.864,3.168,0.864,3.168,0.72,3.024,0.72,3.024,0.576,2.88,0.576,2.88,0.432,2.736,0.432,2.736,0.144,2.592,0.144,2.592,0" stroke="none" stroke-width="0" />
     </g>
    </g>
   </g>
  </g>
  <g partID="855636430">
   <g transform="translate(39.312,118.08)">
    <g id="groundplane" >
     <g id="connector0pad" >
      <polygon fill="black" points="1.152,0,1.152,0.144,1.008,0.144,1.008,0.288,0.864,0.288,0.864,0.432,0.72,0.432,0.72,0.576,0.576,0.576,0.576,0.72,0.432,0.72,0.432,0.864,0.288,0.864,0.288,1.008,0,1.008,0,2.448,0.144,2.448,0.144,2.592,0.288,2.592,0.288,2.736,0.432,2.736,0.432,2.88,0.576,2.88,0.576,3.024,0.72,3.024,0.72,3.168,0.864,3.168,0.864,3.312,1.008,3.312,1.008,3.456,1.152,3.456,1.152,3.6,2.592,3.6,2.592,3.312,2.736,3.312,2.736,3.168,2.88,3.168,2.88,3.024,3.024,3.024,3.024,2.88,3.168,2.88,3.168,2.736,3.312,2.736,3.312,2.592,3.6,2.592,3.6,1.008,3.312,1.008,3.312,0.864,3.168,0.864,3.168,0.72,3.024,0.72,3.024,0.576,2.88,0.576,2.88,0.432,2.736,0.432,2.736,0.144,2.592,0.144,2.592,0" stroke="none" stroke-width="0" />
     </g>
    </g>
   </g>
  </g>
  <g partID="855636440">
   <g transform="translate(46.512,118.08)">
    <g id="groundplane" >
     <g id="connector0pad" >
      <polygon fill="black" points="1.152,0,1.152,0.144,1.008,0.144,1.008,0.288,0.864,0.288,0.864,0.432,0.72,0.432,0.72,0.576,0.576,0.576,0.576,0.72,0.432,0.72,0.432,0.864,0.288,0.864,0.288,1.008,0,1.008,0,2.448,0.144,2.448,0.144,2.592,0.288,2.592,0.288,2.736,0.432,2.736,0.432,2.88,0.576,2.88,0.576,3.024,0.72,3.024,0.72,3.168,0.864,3.168,0.864,3.312,1.008,3.312,1.008,3.456,1.152,3.456,1.152,3.6,2.592,3.6,2.592,3.312,2.736,3.312,2.736,3.168,2.88,3.168,2.88,3.024,3.024,3.024,3.024,2.88,3.168,2.88,3.168,2.736,3.312,2.736,3.312,2.592,3.6,2.592,3.6,1.008,3.456,1.008,3.456,0.864,3.168,0.864,3.168,0.72,3.024,0.72,3.024,0.576,2.88,0.576,2.88,0.432,2.736,0.432,2.736,0.144,2.592,0.144,2.592,0" stroke="none" stroke-width="0" />
     </g>
    </g>
   </g>
  </g>
  <g partID="855636450">
   <g transform="translate(53.712,118.08)">
    <g id="groundplane" >
     <g id="connector0pad" >
      <polygon fill="black" points="1.152,0,1.152,0.144,1.008,0.144,1.008,0.288,0.864,0.288,0.864,0.432,0.72,0.432,0.72,0.576,0.576,0.576,0.576,0.72,0.432,0.72,0.432,0.864,0.288,0.864,0.288,1.008,0,1.008,0,2.448,0.144,2.448,0.144,2.592,0.288,2.592,0.288,2.736,0.432,2.736,0.432,2.88,0.576,2.88,0.576,3.024,0.72,3.024,0.72,3.168,0.864,3.168,0.864,3.312,1.008,3.312,1.008,3.456,1.152,3.456,1.152,3.6,2.592,3.6,2.592,3.312,2.736,3.312,2.736,3.168,2.88,3.168,2.88,3.024,3.024,3.024,3.024,2.88,3.168,2.88,3.168,2.736,3.312,2.736,3.312,2.592,3.6,2.592,3.6,1.008,3.456,1.008,3.456,0.864,3.168,0.864,3.168,0.72,3.024,0.72,3.024,0.576,2.88,0.576,2.88,0.432,2.736,0.432,2.736,0.144,2.592,0.144,2.592,0" stroke="none" stroke-width="0" />
     </g>
    </g>
   </g>
  </g>
  <g partID="855636460">
   <g transform="translate(60.912,118.08)">
    <g id="groundplane" >
     <g id="connector0pad" >
      <polygon fill="black" points="1.152,0,1.152,0.144,1.008,0.144,1.008,0.288,0.864,0.288,0.864,0.432,0.72,0.432,0.72,0.576,0.576,0.576,0.576,0.72,0.432,0.72,0.432,0.864,0.288,0.864,0.288,1.008,0,1.008,0,2.448,0.144,2.448,0.144,2.592,0.288,2.592,0.288,2.736,0.432,2.736,0.432,2.88,0.576,2.88,0.576,3.024,0.72,3.024,0.72,3.168,0.864,3.168,0.864,3.312,1.008,3.312,1.008,3.456,1.152,3.456,1.152,3.6,2.592,3.6,2.592,3.312,2.736,3.312,2.736,3.168,2.88,3.168,2.88,3.024,3.024,3.024,3.024,2.88,3.168,2.88,3.168,2.736,3.312,2.736,3.312,2.592,3.6,2.592,3.6,1.008,3.456,1.008,3.456,0.864,3.168,0.864,3.168,0.72,3.024,0.72,3.024,0.576,2.88,0.576,2.88,0.432,2.736,0.432,2.736,0.144,2.592,0.144,2.592,0" stroke="none" stroke-width="0" />
     </g>
    </g>
   </g>
  </g>
  <g partID="855636470">
   <g transform="translate(68.112,118.08)">
    <g id="groundplane" >
     <g id="connector0pad" >
      <polygon fill="black" points="1.152,0,1.152,0.144,1.008,0.144,1.008,0.288,0.864,0.288,0.864,0.432,0.72,0.432,0.72,0.576,0.576,0.576,0.576,0.72,0.432,0.72,0.432,0.864,0.288,0.864,0.288,1.008,0,1.008,0,2.448,0.144,2.448,0.144,2.592,0.288,2.592,0.288,2.736,0.432,2.736,0.432,2.88,0.576,2.88,0.576,3.024,0.72,3.024,0.72,3.168,0.864,3.168,0.864,3.312,1.008,3.312,1.008,3.456,1.152,3.456,1.152,3.6,2.592,3.6,2.592,3.312,2.736,3.312,2.736,3.168,2.88,3.168,2.88,3.024,3.024,3.024,3.024,2.88,3.168,2.88,3.168,2.736,3.312,2.736,3.312,2.592,3.6,2.592,3.6,1.008,3.456,1.008,3.456,0.864,3.168,0.864,3.168,0.72,3.024,0.72,3.024,0.576,2.88,0.576,2.88,0.432,2.736,0.432,2.736,0.144,2.592,0.144,2.592,0" stroke="none" stroke-width="0" />
     </g>
    </g>
   </g>
  </g>
  <g partID="855636480">
   <g transform="translate(75.312,118.08)">
    <g id="groundplane" >
     <g id="connector0pad" >
      <polygon fill="black" points="1.152,0,1.152,0.144,1.008,0.144,1.008,0.288,0.864,0.288,0.864,0.432,0.72,0.432,0.72,0.576,0.576,0.576,0.576,0.72,0.432,0.72,0.432,0.864,0.288,0.864,0.288,1.008,0,1.008,0,2.448,0.144,2.448,0.144,2.592,0.288,2.592,0.288,2.736,0.432,2.736,0.432,2.88,0.576,2.88,0.576,3.024,0.72,3.024,0.72,3.168,0.864,3.168,0.864,3.312,1.008,3.312,1.008,3.456,1.152,3.456,1.152,3.6,2.592,3.6,2.592,3.312,2.736,3.312,2.736,3.168,2.88,3.168,2.88,3.024,3.024,3.024,3.024,2.88,3.168,2.88,3.168,2.736,3.312,2.736,3.312,2.592,3.6,2.592,3.6,1.008,3.456,1.008,3.456,0.864,3.168,0.864,3.168,0.72,3.024,0.72,3.024,0.576,2.88,0.576,2.88,0.432,2.736,0.432,2.736,0.144,2.592,0.144,2.592,0" stroke="none" stroke-width="0" />
     </g>
    </g>
   </g>
  </g>
  <g partID="855636490">
   <g transform="translate(82.512,118.08)">
    <g id="groundplane" >
     <g id="connector0pad" >
      <polygon fill="black" points="1.152,0,1.152,0.144,1.008,0.144,1.008,0.288,0.864,0.288,0.864,0.432,0.72,0.432,0.72,0.576,0.576,0.576,0.576,0.72,0.432,0.72,0.432,0.864,0.288,0.864,0.288,1.008,0,1.008,0,2.448,0.144,2.448,0.144,2.592,0.288,2.592,0.288,2.736,0.432,2.736,0.432,2.88,0.576,2.88,0.576,3.024,0.72,3.024,0.72,3.168,0.864,3.168,0.864,3.312,1.008,3.312,1.008,3.456,1.152,3.456,1.152,3.6,2.592,3.6,2.592,3.312,2.736,3.312,2.736,3.168,2.88,3.168,2.88,3.024,3.024,3.024,3.024,2.88,3.168,2.88,3.168,2.736,3.312,2.736,3.312,2.592,3.6,2.592,3.6,1.008,3.456,1.008,3.456,0.864,3.168,0.864,3.168,0.72,3.024,0.72,3.024,0.576,2.88,0.576,2.88,0.432,2.736,0.432,2.736,0.144,2.592,0.144,2.592,0" stroke="none" stroke-width="0" />
     </g>
    </g>
   </g>
  </g>
  <g partID="855636500">
   <g transform="translate(89.712,118.08)">
    <g id="groundplane" >
     <g id="connector0pad" >
      <polygon fill="black" points="1.152,0,1.152,0.144,1.008,0.144,1.008,0.288,0.864,0.288,0.864,0.432,0.72,0.432,0.72,0.576,0.576,0.576,0.576,0.72,0.432,0.72,0.432,0.864,0.288,0.864,0.288,1.008,0,1.008,0,2.448,0.144,2.448,0.144,2.592,0.288,2.592,0.288,2.736,0.432,2.736,0.432,2.88,0.576,2.88,0.576,3.024,0.72,3.024,0.72,3.168,0.864,3.168,0.864,3.312,1.008,3.312,1.008,3.456,1.152,3.456,1.152,3.6,2.592,3.6,2.592,3.312,2.736,3.312,2.736,3.168,2.88,3.168,2.88,3.024,3.024,3.024,3.024,2.88,3.168,2.88,3.168,2.736,3.312,2.736,3.312,2.592,3.6,2.592,3.6,1.008,3.456,1.008,3.456,0.864,3.168,0.864,3.168,0.72,3.024,0.72,3.024,0.576,2.88,0.576,2.88,0.432,2.736,0.432,2.736,0.144,2.592,0.144,2.592,0" stroke="none" stroke-width="0" />
     </g>
    </g>
   </g>
  </g>
  <g partID="855636510">
   <g transform="translate(96.912,118.08)">
    <g id="groundplane" >
     <g id="connector0pad" >
      <polygon fill="black" points="1.152,0,1.152,0.144,1.008,0.144,1.008,0.288,0.864,0.288,0.864,0.432,0.72,0.432,0.72,0.576,0.576,0.576,0.576,0.72,0.432,0.72,0.432,0.864,0.288,0.864,0.288,1.008,0,1.008,0,2.448,0.144,2.448,0.144,2.592,0.288,2.592,0.288,2.736,0.432,2.736,0.432,2.88,0.576,2.88,0.576,3.024,0.72,3.024,0.72,3.168,0.864,3.168,0.864,3.312,1.008,3.312,1.008,3.456,1.152,3.456,1.152,3.6,2.592,3.6,2.592,3.312,2.736,3.312,2.736,3.168,2.88,3.168,2.88,3.024,3.024,3.024,3.024,2.88,3.168,2.88,3.168,2.736,3.312,2.736,3.312,2.592,3.6,2.592,3.6,1.008,3.456,1.008,3.456,0.864,3.168,0.864,3.168,0.72,3.024,0.72,3.024,0.576,2.88,0.576,2.88,0.432,2.736,0.432,2.736,0.144,2.592,0.144,2.592,0" stroke="none" stroke-width="0" />
     </g>
    </g>
   </g>
  </g>
  <g partID="855636520">
   <g transform="translate(104.112,118.08)">
    <g id="groundplane" >
     <g id="connector0pad" >
      <polygon fill="black" points="1.152,0,1.152,0.144,1.008,0.144,1.008,0.288,0.864,0.288,0.864,0.432,0.72,0.432,0.72,0.576,0.576,0.576,0.576,0.72,0.432,0.72,0.432,0.864,0.288,0.864,0.288,1.008,0,1.008,0,2.448,0.144,2.448,0.144,2.592,0.288,2.592,0.288,2.736,0.432,2.736,0.432,2.88,0.576,2.88,0.576,3.024,0.72,3.024,0.72,3.168,0.864,3.168,0.864,3.312,1.008,3.312,1.008,3.456,1.152,3.456,1.152,3.6,2.592,3.6,2.592,3.312,2.736,3.312,2.736,3.168,2.88,3.168,2.88,3.024,3.024,3.024,3.024,2.88,3.168,2.88,3.168,2.736,3.312,2.736,3.312,2.592,3.6,2.592,3.6,1.008,3.456,1.008,3.456,0.864,3.168,0.864,3.168,0.72,3.024,0.72,3.024,0.576,2.88,0.576,2.88,0.432,2.736,0.432,2.736,0.144,2.592,0.144,2.592,0" stroke="none" stroke-width="0" />
     </g>
    </g>
   </g>
  </g>
  <g partID="855636530">
   <g transform="translate(111.312,118.08)">
    <g id="groundplane" >
     <g id="connector0pad" >
      <polygon fill="black" points="1.152,0,1.152,0.144,1.008,0.144,1.008,0.288,0.864,0.288,0.864,0.432,0.72,0.432,0.72,0.576,0.576,0.576,0.576,0.72,0.432,0.72,0.432,0.864,0.288,0.864,0.288,1.008,0,1.008,0,2.448,0.144,2.448,0.144,2.592,0.288,2.592,0.288,2.736,0.432,2.736,0.432,2.88,0.576,2.88,0.576,3.024,0.72,3.024,0.72,3.168,0.864,3.168,0.864,3.312,1.008,3.312,1.008,3.456,1.152,3.456,1.152,3.6,2.592,3.6,2.592,3.312,2.736,3.312,2.736,3.168,2.88,3.168,2.88,3.024,3.024,3.024,3.024,2.88,3.168,2.88,3.168,2.736,3.312,2.736,3.312,2.592,3.6,2.592,3.6,1.008,3.456,1.008,3.456,0.864,3.168,0.864,3.168,0.72,3.024,0.72,3.024,0.576,2.88,0.576,2.88,0.432,2.736,0.432,2.736,0.144,2.592,0.144,2.592,0" stroke="none" stroke-width="0" />
     </g>
    </g>
   </g>
  </g>
  <g partID="855636540">
   <g transform="translate(118.512,118.08)">
    <g id="groundplane" >
     <g id="connector0pad" >
      <polygon fill="black" points="1.152,0,1.152,0.144,1.008,0.144,1.008,0.288,0.864,0.288,0.864,0.432,0.72,0.432,0.72,0.576,0.576,0.576,0.576,0.72,0.432,0.72,0.432,0.864,0.288,0.864,0.288,1.008,0,1.008,0,2.448,0.144,2.448,0.144,2.592,0.288,2.592,0.288,2.736,0.432,2.736,0.432,2.88,0.576,2.88,0.576,3.024,0.72,3.024,0.72,3.168,0.864,3.168,0.864,3.312,1.008,3.312,1.008,3.456,1.152,3.456,1.152,3.6,2.592,3.6,2.592,3.312,2.736,3.312,2.736,3.168,2.88,3.168,2.88,3.024,3.024,3.024,3.024,2.88,3.168,2.88,3.168,2.736,3.312,2.736,3.312,2.592,3.6,2.592,3.6,1.008,3.456,1.008,3.456,0.864,3.168,0.864,3.168,0.72,3.024,0.72,3.024,0.576,2.88,0.576,2.88,0.432,2.736,0.432,2.736,0.144,2.592,0.144,2.592,0" stroke="none" stroke-width="0" />
     </g>
    </g>
   </g>
  </g>
  <g partID="855636550">
   <g transform="translate(125.712,118.08)">
    <g id="groundplane" >
     <g id="connector0pad" >
      <polygon fill="black" points="1.152,0,1.152,0.144,1.008,0.144,1.008,0.288,0.864,0.288,0.864,0.432,0.72,0.432,0.72,0.576,0.576,0.576,0.576,0.72,0.432,0.72,0.432,0.864,0.288,0.864,0.288,1.008,0,1.008,0,2.448,0.144,2.448,0.144,2.592,0.288,2.592,0.288,2.736,0.432,2.736,0.432,2.88,0.576,2.88,0.576,3.024,0.72,3.024,0.72,3.168,0.864,3.168,0.864,3.312,1.008,3.312,1.008,3.456,1.152,3.456,1.152,3.6,2.592,3.6,2.592,3.312,2.736,3.312,2.736,3.168,2.88,3.168,2.88,3.024,3.024,3.024,3.024,2.88,3.168,2.88,3.168,2.736,3.312,2.736,3.312,2.592,3.6,2.592,3.6,1.008,3.456,1.008,3.456,0.864,3.168,0.864,3.168,0.72,3.024,0.72,3.024,0.576,2.88,0.576,2.88,0.432,2.736,0.432,2.736,0.144,2.592,0.144,2.592,0" stroke="none" stroke-width="0" />
     </g>
    </g>
   </g>
  </g>
  <g partID="855636560">
   <g transform="translate(132.912,118.08)">
    <g id="groundplane" >
     <g id="connector0pad" >
      <polygon fill="black" points="1.152,0,1.152,0.144,1.008,0.144,1.008,0.288,0.864,0.288,0.864,0.432,0.72,0.432,0.72,0.576,0.576,0.576,0.576,0.72,0.432,0.72,0.432,0.864,0.288,0.864,0.288,1.008,0,1.008,0,2.448,0.144,2.448,0.144,2.592,0.288,2.592,0.288,2.736,0.432,2.736,0.432,2.88,0.576,2.88,0.576,3.024,0.72,3.024,0.72,3.168,0.864,3.168,0.864,3.312,1.008,3.312,1.008,3.456,1.152,3.456,1.152,3.6,2.592,3.6,2.592,3.312,2.736,3.312,2.736,3.168,2.88,3.168,2.88,3.024,3.024,3.024,3.024,2.88,3.168,2.88,3.168,2.736,3.312,2.736,3.312,2.592,3.6,2.592,3.6,1.008,3.456,1.008,3.456,0.864,3.168,0.864,3.168,0.72,3.024,0.72,3.024,0.576,2.88,0.576,2.88,0.432,2.736,0.432,2.736,0.144,2.592,0.144,2.592,0" stroke="none" stroke-width="0" />
     </g>
    </g>
   </g>
  </g>
  <g partID="855636570">
   <g transform="translate(140.112,118.08)">
    <g id="groundplane" >
     <g id="connector0pad" >
      <polygon fill="black" points="1.152,0,1.152,0.144,1.008,0.144,1.008,0.288,0.864,0.288,0.864,0.432,0.72,0.432,0.72,0.576,0.576,0.576,0.576,0.72,0.432,0.72,0.432,0.864,0.288,0.864,0.288,1.008,0,1.008,0,2.448,0.144,2.448,0.144,2.592,0.288,2.592,0.288,2.736,0.432,2.736,0.432,2.88,0.576,2.88,0.576,3.024,0.72,3.024,0.72,3.168,0.864,3.168,0.864,3.312,1.008,3.312,1.008,3.456,1.152,3.456,1.152,3.6,2.592,3.6,2.592,3.312,2.736,3.312,2.736,3.168,2.88,3.168,2.88,3.024,3.024,3.024,3.024,2.88,3.168,2.88,3.168,2.736,3.312,2.736,3.312,2.592,3.6,2.592,3.6,1.008,3.456,1.008,3.456,0.864,3.168,0.864,3.168,0.72,3.024,0.72,3.024,0.576,2.88,0.576,2.88,0.432,2.736,0.432,2.736,0.144,2.592,0.144,2.592,0" stroke="none" stroke-width="0" />
     </g>
    </g>
   </g>
  </g>
  <g partID="855636580">
   <g transform="translate(28.656,124.704)">
    <g id="groundplane" >
     <polygon fill="black" points="0,0,3.096,0,3.096,1.872,0,1.872" stroke="none" stroke-width="0" />
    </g>
   </g>
  </g>
  <g partID="855636590">
   <g transform="translate(62.784,85.896)">
    <g id="groundplane" >
     <polygon fill="black" points="0,0,2.016,0,2.016,2.952,0,2.952" stroke="none" stroke-width="0" />
    </g>
   </g>
  </g>
  <g partID="855636600">
   <g transform="translate(67.536,85.896)">
    <g id="groundplane" >
     <polygon fill="black" points="0,0,2.016,0,2.016,2.952,0,2.952" stroke="none" stroke-width="0" />
    </g>
   </g>
  </g>
  <g partID="855636610">
   <g transform="translate(129.456,124.704)">
    <g id="groundplane" >
     <polygon fill="black" points="0,0,3.096,0,3.096,1.872,0,1.872" stroke="none" stroke-width="0" />
    </g>
   </g>
  </g>
  <g partID="855636620">
   <g transform="translate(43.056,124.704)">
    <g id="groundplane" >
     <polygon fill="black" points="0,0,3.096,0,3.096,1.872,0,1.872" stroke="none" stroke-width="0" />
    </g>
   </g>
  </g>
  <g partID="855636630">
   <g transform="translate(57.456,112.608)">
    <g id="groundplane" >
     <polygon fill="black" points="0,0,3.096,0,3.096,1.872,0,1.872" stroke="none" stroke-width="0" />
    </g>
   </g>
  </g>
  <g partID="855636640">
   <g transform="translate(100.656,124.704)">
    <g id="groundplane" >
     <polygon fill="black" points="0,0,3.096,0,3.096,1.872,0,1.872" stroke="none" stroke-width="0" />
    </g>
   </g>
  </g>
  <g partID="855636650">
   <g transform="translate(7.056,112.608)">
    <g id="groundplane" >
     <polygon fill="black" points="0,0,3.096,0,3.096,1.872,0,1.872" stroke="none" stroke-width="0" />
    </g>
   </g>
  </g>
  <g partID="855636660">
   <g transform="translate(5.04,114.48)">
    <g id="groundplane" >
     <polygon fill="black" points="0,0,2.016,0,2.016,3.096,0,3.096" stroke="none" stroke-width="0" />
    </g>
   </g>
  </g>
  <g partID="855636670">
   <g transform="translate(79.056,124.704)">
    <g id="groundplane" >
     <polygon fill="black" points="0,0,3.096,0,3.096,1.872,0,1.872" stroke="none" stroke-width="0" />
    </g>
   </g>
  </g>
  <g partID="855484660">
   <g transform="translate(23.1368,101.874)">
    <g transform="matrix(0,-1,1,0,0,0)">
     <g gorn="0.3.0" id="copper0" >
      <circle fill="none" gorn="0.3.0.0" cy="43.2" connectorname="AIN3" cx="72" id="connector10pad" stroke="black" stroke-width="1.10268" r="1.96866" />
      <circle fill="none" gorn="0.3.0.1" cy="43.2" connectorname="AIN2" cx="64.8" id="connector11pad" stroke="black" stroke-width="1.10268" r="1.96866" />
      <circle fill="none" gorn="0.3.0.2" cy="43.2" connectorname="AIN1" cx="57.6" id="connector12pad" stroke="black" stroke-width="1.10268" r="1.96866" />
      <circle fill="none" gorn="0.3.0.3" cy="43.2" connectorname="AIN0" cx="50.4" id="connector13pad" stroke="black" stroke-width="1.10268" r="1.96866" />
      <circle fill="none" gorn="0.3.0.4" cy="43.2" connectorname="ALERT" cx="43.2" id="connector14pad" stroke="black" stroke-width="1.10268" r="1.96866" />
      <circle fill="none" gorn="0.3.0.5" cy="43.2" connectorname="ADDR" cx="36" id="connector15pad" stroke="black" stroke-width="1.10268" r="1.96866" />
      <circle fill="none" gorn="0.3.0.6" cy="43.2" connectorname="SDA" cx="28.8" id="connector16pad" stroke="black" stroke-width="1.10268" r="1.96866" />
      <circle fill="none" gorn="0.3.0.7" cy="43.2" connectorname="SCL" cx="21.6" id="connector17pad" stroke="black" stroke-width="1.10268" r="1.96866" />
      <circle fill="none" gorn="0.3.0.8" cy="43.2" connectorname="GND" cx="14.4" id="connector18pad" stroke="black" stroke-width="1.10268" r="1.96866" />
      <circle fill="none" gorn="0.3.0.9" cy="43.2" connectorname="VDD" cx="7.2" id="connector19pad" stroke="black" stroke-width="1.10268" r="1.96866" />
     </g>
    </g>
   </g>
  </g>
  <g partID="855497570">
   <g transform="translate(169.721,129.193)">
    <g transform="matrix(-1,0,0,-1,0,0)">
     <g id="copper0" >
      <g id="copper1" >
       <circle fill="none" cy="12.919" cx="24.185" id="connector0pin" stroke="black" stroke-width="1.25" r="2.088" />
       <circle fill="none" cy="12.919" cx="31.384" id="connector1pin" stroke="black" stroke-width="1.25" r="2.088" />
       <circle fill="none" cy="12.919" cx="38.585" id="connector2pin" stroke="black" stroke-width="1.25" r="2.088" />
       <circle fill="none" cy="12.919" cx="45.784" id="connector3pin" stroke="black" stroke-width="1.25" r="2.088" />
       <circle fill="none" cy="12.919" cx="52.985" id="connector4pin" stroke="black" stroke-width="1.25" r="2.088" />
       <circle fill="none" cy="12.919" cx="60.185" id="connector5pin" stroke="black" stroke-width="1.25" r="2.088" />
       <circle fill="none" cy="12.919" cx="67.384" id="connector6pin" stroke="black" stroke-width="1.25" r="2.088" />
       <circle fill="none" cy="12.919" cx="74.585" id="connector7pin" stroke="black" stroke-width="1.25" r="2.088" />
       <circle fill="none" cy="12.919" cx="81.784" id="connector8pin" stroke="black" stroke-width="1.25" r="2.088" />
       <circle fill="none" cy="12.919" cx="88.985" id="connector9pin" stroke="black" stroke-width="1.25" r="2.088" />
       <circle fill="none" cy="12.919" cx="96.185" id="connector10pin" stroke="black" stroke-width="1.25" r="2.088" />
       <circle fill="none" cy="12.919" cx="103.385" id="connector11pin" stroke="black" stroke-width="1.25" r="2.088" />
       <circle fill="none" cy="12.919" cx="110.585" id="connector12pin" stroke="black" stroke-width="1.25" r="2.088" />
       <circle fill="none" cy="12.919" cx="117.784" id="connector13pin" stroke="black" stroke-width="1.25" r="2.088" />
       <circle fill="none" cy="12.919" cx="124.986" id="connector14pin" stroke="black" stroke-width="1.25" r="2.088" />
       <circle fill="none" cy="12.919" cx="132.185" id="connector15pin" stroke="black" stroke-width="1.25" r="2.088" />
       <circle fill="none" cy="12.919" cx="139.385" id="connector16pin" stroke="black" stroke-width="1.25" r="2.088" />
       <circle fill="none" cy="12.919" cx="146.585" id="connector17pin" stroke="black" stroke-width="1.25" r="2.088" />
       <circle fill="none" cy="12.919" cx="153.784" id="connector18pin" stroke="black" stroke-width="1.25" r="2.088" />
       <circle fill="none" cy="12.919" cx="160.986" id="connector19pin" stroke="black" stroke-width="1.25" r="2.088" />
       <circle fill="none" cy="5.72" cx="160.986" id="connector20pin" stroke="black" stroke-width="1.25" r="2.088" />
       <circle fill="none" cy="5.72" cx="153.784" id="connector21pin" stroke="black" stroke-width="1.25" r="2.088" />
       <circle fill="none" cy="5.72" cx="146.585" id="connector22pin" stroke="black" stroke-width="1.25" r="2.088" />
       <circle fill="none" cy="5.72" cx="139.385" id="connector23pin" stroke="black" stroke-width="1.25" r="2.088" />
       <circle fill="none" cy="5.72" cx="132.185" id="connector24pin" stroke="black" stroke-width="1.25" r="2.088" />
       <circle fill="none" cy="5.72" cx="124.986" id="connector25pin" stroke="black" stroke-width="1.25" r="2.088" />
       <circle fill="none" cy="5.72" cx="117.784" id="connector26pin" stroke="black" stroke-width="1.25" r="2.088" />
       <circle fill="none" cy="5.72" cx="110.585" id="connector27pin" stroke="black" stroke-width="1.25" r="2.088" />
       <circle fill="none" cy="5.72" cx="103.385" id="connector28pin" stroke="black" stroke-width="1.25" r="2.088" />
       <circle fill="none" cy="5.72" cx="96.185" id="connector29pin" stroke="black" stroke-width="1.25" r="2.088" />
       <circle fill="none" cy="5.72" cx="88.985" id="connector30pin" stroke="black" stroke-width="1.25" r="2.088" />
       <circle fill="none" cy="5.72" cx="81.784" id="connector31pin" stroke="black" stroke-width="1.25" r="2.088" />
       <circle fill="none" cy="5.72" cx="74.585" id="connector32pin" stroke="black" stroke-width="1.25" r="2.088" />
       <circle fill="none" cy="5.72" cx="67.384" id="connector33pin" stroke="black" stroke-width="1.25" r="2.088" />
       <circle fill="none" cy="5.72" cx="60.185" id="connector34pin" stroke="black" stroke-width="1.25" r="2.088" />
       <circle fill="none" cy="5.72" cx="52.985" id="connector35pin" stroke="black" stroke-width="1.25" r="2.088" />
       <circle fill="none" cy="5.72" cx="45.784" id="connector36pin" stroke="black" stroke-width="1.25" r="2.088" />
       <circle fill="none" cy="5.72" cx="38.585" id="connector37pin" stroke="black" stroke-width="1.25" r="2.088" />
       <circle fill="none" cy="5.72" cx="31.384" id="connector38pin" stroke="black" stroke-width="1.25" r="2.088" />
       <circle fill="none" cy="5.72" cx="24.185" id="connector39pin" stroke="black" stroke-width="1.25" r="2.088" />
      </g>
     </g>
    </g>
   </g>
  </g>
  <g partID="855485560">
   <line x2="68.5545" y2="73.0751" stroke-linecap="round" stroke="black" x1="95.1344" y1="73.0892" stroke-width="1.728"/>
  </g>
  <g partID="855496530">
   <line x2="102.382" y2="80.3368" stroke-linecap="round" stroke="black" x1="102.382" y1="94.6251" stroke-width="1.728"/>
  </g>
  <g partID="855496590">
   <line x2="109.629" y2="101.873" stroke-linecap="round" stroke="black" x1="123.918" y1="101.873" stroke-width="1.728"/>
  </g>
  <g partID="855485240">
   <line x2="123.918" y2="101.873" stroke-linecap="round" stroke="black" x1="136.736" y1="114.675" stroke-width="1.728"/>
  </g>
  <g partID="855496650">
   <line x2="102.382" y2="94.6254" stroke-linecap="round" stroke="black" x1="109.63" y1="101.873" stroke-width="1.728"/>
  </g>
  <g partID="855496230">
   <line x2="95.1339" y2="73.0892" stroke-linecap="round" stroke="black" x1="102.382" y1="80.3369" stroke-width="1.728"/>
  </g>
  <g partID="855485630">
   <line x2="68.5542" y2="80.2804" stroke-linecap="round" stroke="black" x1="87.8864" y1="80.3369" stroke-width="1.728"/>
  </g>
  <g partID="855496470">
   <line x2="95.1339" y2="101.873" stroke-linecap="round" stroke="black" x1="102.382" y1="109.12" stroke-width="1.728"/>
  </g>
  <g partID="855485170">
   <line x2="123.918" y2="109.121" stroke-linecap="round" stroke="black" x1="129.529" y1="114.681" stroke-width="1.728"/>
  </g>
  <g partID="855496410">
   <line x2="102.382" y2="109.12" stroke-linecap="round" stroke="black" x1="123.918" y1="109.12" stroke-width="1.728"/>
  </g>
  <g partID="855496350">
   <line x2="95.1344" y2="87.3777" stroke-linecap="round" stroke="black" x1="95.1344" y1="101.873" stroke-width="1.728"/>
  </g>
  <g partID="855496290">
   <line x2="87.8867" y2="80.3369" stroke-linecap="round" stroke="black" x1="95.1344" y1="87.3775" stroke-width="1.728"/>
  </g>
 </g>
</svg>
