G04 MADE WITH FRITZING*
G04 WWW.FRITZING.ORG*
G04 DOUBLE SIDED*
G04 HOLES PLATED*
G04 CONTOUR ON CENTER OF CONTOUR VECTOR*
%ASAXBY*%
%FSLAX23Y23*%
%MOIN*%
%OFA0B0*%
%SFA1.0B1.0*%
%ADD10C,0.070000*%
%ADD11C,0.075361*%
%ADD12R,0.100000X0.059842*%
%ADD13C,0.024000*%
%LNCOPPER1*%
G90*
G70*
G54D10*
X921Y1384D03*
X921Y1284D03*
X921Y1184D03*
X921Y1084D03*
X921Y984D03*
X921Y884D03*
X921Y784D03*
X921Y684D03*
X921Y584D03*
X921Y484D03*
G54D11*
X2021Y184D03*
X1921Y184D03*
X1821Y184D03*
X1721Y184D03*
X1621Y184D03*
X1521Y184D03*
X1421Y184D03*
X1321Y184D03*
X1221Y184D03*
X1121Y184D03*
X1021Y184D03*
X921Y184D03*
X821Y184D03*
X721Y184D03*
X621Y184D03*
X521Y184D03*
X421Y184D03*
X321Y184D03*
X221Y184D03*
X121Y184D03*
X121Y84D03*
X221Y84D03*
X321Y84D03*
X421Y84D03*
X521Y84D03*
X621Y84D03*
X721Y84D03*
X821Y84D03*
X921Y84D03*
X1021Y84D03*
X1121Y84D03*
X1221Y84D03*
X1321Y84D03*
X1421Y84D03*
X1521Y84D03*
X1621Y84D03*
X1721Y84D03*
X1821Y84D03*
X1921Y84D03*
X2021Y84D03*
G54D12*
X2151Y1584D03*
X2151Y1484D03*
X2151Y1384D03*
X2151Y1284D03*
X1521Y1584D03*
X1521Y1484D03*
X1521Y1384D03*
X1521Y1284D03*
G54D13*
X1999Y207D02*
X1822Y384D01*
D02*
X1822Y384D02*
X1822Y1385D01*
D02*
X1721Y1483D02*
X1566Y1484D01*
D02*
X1822Y1385D02*
X1721Y1483D01*
D02*
X1120Y1083D02*
X952Y1084D01*
D02*
X1321Y1285D02*
X1120Y1083D01*
D02*
X1477Y1284D02*
X1321Y1285D01*
D02*
X1120Y485D02*
X952Y484D01*
D02*
X1221Y216D02*
X1221Y384D01*
D02*
X1221Y384D02*
X1120Y485D01*
D02*
X821Y584D02*
X722Y684D01*
D02*
X1323Y1384D02*
X1477Y1384D01*
D02*
X1121Y1483D02*
X1323Y1384D01*
D02*
X722Y684D02*
X722Y1384D01*
D02*
X722Y1384D02*
X821Y1483D01*
D02*
X821Y1483D02*
X1121Y1483D01*
D02*
X891Y584D02*
X821Y584D01*
G04 End of Copper1*
M02*