; NON-PLATED HOLES START AT T1
; THROUGH (PLATED) HOLES START AT T100
M48
INCH
T100C0.040639
T101C0.039370
%
T100
X019213Y000843
X015213Y001843
X005213Y000843
X016213Y001843
X020213Y001843
X015213Y000843
X004213Y001843
X008213Y000843
X016213Y000843
X017213Y000843
X003213Y000843
X003213Y001843
X002213Y001843
X002213Y000843
X018213Y000843
X018213Y001843
X006213Y000843
X004213Y000843
X020213Y000843
X009213Y001843
X010213Y000843
X006213Y001843
X012213Y001843
X019213Y001843
X011213Y001843
X017213Y001843
X007213Y001843
X014213Y000843
X013213Y001843
X012213Y000843
X007213Y000843
X001213Y000843
X001213Y001843
X013213Y000843
X010213Y001843
X005213Y001843
X014213Y001843
X011213Y000843
X008213Y001843
X009213Y000843
T101
X009213Y008843
X009213Y005843
X009213Y007843
X009213Y011843
X009213Y004843
X009213Y010843
X009213Y012843
X009213Y009843
X009213Y013843
X009213Y006843
T00
M30
